<?xml version="1.0" encoding="utf-8"?>
<!-- Generator: Adobe Illustrator 19.1.1, SVG Export Plug-In . SVG Version: 6.00 Build 0)  -->
<svg version="1.1" id="Layer_1" xmlns="http://www.w3.org/2000/svg" xmlns:xlink="http://www.w3.org/1999/xlink" x="0px" y="0px"
	 viewBox="0 0 730.7 275.3" style="enable-background:new 0 0 730.7 275.3;" xml:space="preserve">
<style type="text/css">
	.st0{fill:#00458D;}
	.st1{fill:#A70069;}
	.st2{opacity:0.7;fill:#FFFFFF;stroke:#FFFFFF;stroke-width:3.2801;stroke-miterlimit:10;}
	.st3{fill:none;stroke:#FFFFFF;stroke-width:7.9812;stroke-miterlimit:10;}
	.st4{fill-rule:evenodd;clip-rule:evenodd;fill:#A70064;}
	.st5{fill-rule:evenodd;clip-rule:evenodd;fill:#FFFFFF;}
	.st6{fill:#A5AED2;}
</style>
<path class="st0" d="M254.4,162.1l23.4-62.7h14l23.3,62.7h-18.2l-3.8-12.3h-16.7l-3.7,12.3H254.4z M284.8,117.3l-5.8,21h11.4
	L284.8,117.3z"/>
<path class="st0" d="M319.8,162.1V99.4h28.8c12.3,0,21.1,11,21.1,21.7c0,7.2-3.4,14-9,17.9l14.1,23.1h-19.4l-11.9-19.3h-6.5v19.3
	H319.8z M337.1,127.8h10.9c2.1,0,4.3-2.5,4.3-6.7c0-4.3-2.7-6.7-4.8-6.7h-10.4V127.8z"/>
<path class="st0" d="M380.4,162.1V99.4h17.2v47.7h28.5v15H380.4z"/>
<path class="st0" d="M429.1,162.1l23.4-62.7h14l23.3,62.7h-18.2l-3.8-12.3h-16.7l-3.7,12.3H429.1z M459.5,117.3l-5.8,21h11.4
	L459.5,117.3z"/>
<path class="st0" d="M511.7,131.3v30.8h-17.2V99.4h13.4l25.2,31.9V99.4h17.2v62.7h-13.7L511.7,131.3z"/>
<path class="st0" d="M605.9,147.1v15h-44.7V99.4h43.9v15h-26.7v8.8h22.8v14h-22.8v9.9H605.9z"/>
<path class="st0" d="M662.8,114.4h-18v47.7h-17.2v-47.7h-18.1v-15h53.4V114.4z"/>
<path class="st1" d="M255.4,204.1v-29.8h11.5c9.9,0,15,6.6,15,14.9c0,9-6,14.9-15,14.9H255.4z M266.9,181.4h-3.3v15.5h3.3
	c4.3,0,6.7-3.3,6.7-7.8C273.6,184.5,271.1,181.4,266.9,181.4z"/>
<path class="st1" d="M285.5,204.1v-29.8h8.2v29.8H285.5z"/>
<path class="st1" d="M317.4,201.6c-1.9,1.8-4,2.6-6.5,2.6c-7.3,0-13.6-7.1-13.6-15.4c0-8.3,6.3-14.9,14.4-14.9c5,0,9.4,2.5,11.3,6.5
	l-6.1,4.7c-1-2.3-3.3-3.9-5.5-3.9c-3.4,0-5.8,3.3-5.8,7.9c0,4.7,2.4,7.8,6,7.8c2,0,3.9-1,5.5-2.9h-5.2v-5.9h12.3v15.9h-6.8V201.6z"
	/>
<path class="st1" d="M328.1,204.1v-29.8h8.2v29.8H328.1z"/>
<path class="st1" d="M364.6,181.4h-8.6v22.7h-8.2v-22.7h-8.6v-7.1h25.3V181.4z"/>
<path class="st1" d="M362.1,204.1l11.1-29.8h6.6l11.1,29.8h-8.6l-1.8-5.8h-7.9l-1.8,5.8H362.1z M376.5,182.8l-2.8,10h5.4
	L376.5,182.8z"/>
<path class="st1" d="M393.2,204.1v-29.8h8.2v22.7h13.5v7.1H393.2z"/>
<path class="st1" d="M451.5,196.9v7.1h-21.2v-29.8h20.9v7.1h-12.7v4.2h10.8v6.6h-10.8v4.7H451.5z"/>
<path class="st1" d="M463.5,189.4v14.6h-8.2v-29.8h6.4l12,15.1v-15.1h8.2v29.8h-6.5L463.5,189.4z"/>
<path class="st1" d="M505.5,201.6c-1.9,1.8-4,2.6-6.5,2.6c-7.3,0-13.6-7.1-13.6-15.4c0-8.3,6.3-14.9,14.4-14.9c5,0,9.4,2.5,11.3,6.5
	l-6.1,4.7c-1-2.3-3.3-3.9-5.5-3.9c-3.4,0-5.8,3.3-5.8,7.9c0,4.7,2.4,7.8,6,7.8c2,0,3.9-1,5.5-2.9H500v-5.9h12.3v15.9h-6.8V201.6z"/>
<path class="st1" d="M516.3,204.1v-29.8h8.2v29.8H516.3z"/>
<path class="st1" d="M537.8,189.4v14.6h-8.2v-29.8h6.4l12,15.1v-15.1h8.2v29.8h-6.5L537.8,189.4z"/>
<path class="st1" d="M582.5,196.9v7.1h-21.2v-29.8h20.9v7.1h-12.7v4.2h10.8v6.6h-10.8v4.7H582.5z"/>
<path class="st1" d="M607.5,196.9v7.1h-21.2v-29.8h20.9v7.1h-12.7v4.2h10.8v6.6h-10.8v4.7H607.5z"/>
<path class="st1" d="M611.3,204.1v-29.8H625c5.8,0,10,5.2,10,10.3c0,3.4-1.6,6.6-4.3,8.5l6.7,11h-9.2l-5.7-9.1h-3.1v9.1H611.3z
	 M619.5,187.8h5.2c1,0,2.1-1.2,2.1-3.2c0-2.1-1.3-3.2-2.3-3.2h-5V187.8z"/>
<path class="st1" d="M658.2,184c0,0-4.3-2.7-7.9-2.7c-1.4,0-2.4,0.4-2.4,1.5c0,1.5,2.1,1.9,5.5,3c5.5,1.7,9,3.6,9,9.2
	c0,7.2-5.8,9.5-11.3,9.5c-4.3,0-9.4-1.4-13-3.5l3.5-7.2c0,0,5,3.3,9.6,3.3c1.8,0,2.4-0.5,2.4-1.3c0-1.7-3.1-2.1-6.6-3.3
	c-5.2-1.8-7.6-4-7.6-8.3c0-6.6,5.2-10.1,11.1-10.1c4.3,0,8.5,1.9,11.2,3.2L658.2,184z"/>
<path class="st2" d="M266.9,69"/>
<path class="st3" d="M266.9,69"/>
<path class="st4" d="M87.9,100.2v0.5c1.1,31.5,7,59.7,9.7,62.4c6.2,8.3,25.5,22,36.4,28.9c2.7,1.7,5,2,7.6,2.1
	c2.6-0.1,4.9-0.5,7.6-2.1c11.1-6.6,30.7-20.6,36.9-28.9c2.7-2.8,8.2-30.9,9.3-62.4l0-0.5c0-2.9-1.9-5.4-4.4-6.3
	c-13.5-4.7-33.3-5.9-49.3-5.9c-16,0-35.8,1.3-49.3,5.9C89.8,94.8,87.9,97.3,87.9,100.2z"/>
<g>
	<g>
		<path class="st5" d="M173.9,162.8c0,0.5-0.4,0.9-1.1,1.1c-0.9,0.2-3.6,0.4-8.2,0.4c-4.2,0-6.9-0.1-8.1-0.4c-1-0.2-1.6-0.9-1.9-2
			c-1-4.2-1.8-6.5-2.3-6.8c-0.5-0.2-4.4-0.3-11.8-0.3c-5,0-7.7,0.1-8,0.4c-0.5,0.5-1.1,2-1.7,4.7c-0.6,2.4-1.2,3.8-2,4
			c-1,0.2-4.4,0.4-10.1,0.4c-4.5,0-6.8-0.4-6.8-1.3c0-0.8,3.3-10.2,10-28.2c7.2-19.5,11.1-30.3,11.8-32.2c0.4-1.1,0.8-1.7,1.2-1.7
			c0.8,0,4.9-0.4,7.3-0.4c2,0,6.3,0.5,7.1,0.5c0.6,0,1.1,0.5,1.5,1.5c1.4,3.1,5.7,13.7,12.6,31.8C170.4,152.5,173.9,162,173.9,162.8
			z"/>
		<path class="st4" d="M142.6,122.5c-0.6,1.3-1.7,4.1-3.1,8.4c-1.6,4.6-2.4,7.3-2.4,8.1c0,0.5,0.9,0.8,2.7,0.9
			c0.9,0.1,2.4,0.1,4.5,0.1c1.9,0,3-0.2,3.2-0.7c0.1-0.1,0.1-0.4,0.1-0.6c0-1-0.7-3.7-2-8C144.2,126.4,143.2,123.7,142.6,122.5z"/>
	</g>
</g>
<g>
	<path class="st6" d="M207.9,123.6l17.4-8.8c0.5-5.4,0.9-11,1.3-16.7l-17.1,5.7C209.1,110.6,208.5,117.3,207.9,123.6z"/>
	<path class="st0" d="M198.3,171.5c-8,10.5-33.3,27.4-47,36.4c-3.3,2.1-6.4,3.7-9.7,3.8c-3.3-0.1-6.4-1.7-9.7-3.8
		c-8.1-5.3-20.4-13.4-30.6-21.3l-15.5,7.9c13.8,11,32,22.8,43.6,30.4c4.1,2.7,8.1,4.7,12.2,4.8c4.2-0.1,8.1-2.1,12.2-4.8
		c17.3-11.3,49.4-32,59.4-45.3c3-3,7.8-25.2,11.1-55.3l-17.6,8.9C204.1,154.1,200.5,169.3,198.3,171.5z"/>
	<path class="st6" d="M84.9,171.5c-1.6-1.7-4-10.6-6.3-23.8l-15.8,5.3c2.5,14.7,5.2,24.5,7.1,26.4c2.1,2.9,5.3,6,9.1,9.4l15.4-7.8
		C90.4,177.6,87,174.4,84.9,171.5z"/>
	<path class="st0" d="M73.1,91.9l0-0.6c0-3.7,2.4-6.9,5.7-8.1c17.2-5.9,42.4-7.5,62.9-7.5c20.4,0,45.7,1.6,62.9,7.5
		c3.3,1.2,5.7,4.4,5.7,8.1l0,0.6c0,1.1-0.1,2.2-0.1,3.3l17.1-5.8c0.2-3,0.3-6,0.4-9.1l0-0.8c0-4.7-3-8.7-7.2-10.2
		c-21.7-7.5-52.9-11.6-78.8-11.6c-25.9,0-57.1,4.1-78.8,11.6c-4.2,1.5-7.2,5.5-7.2,10.2l0,0.8c0.9,24.2,3.2,47.1,5.9,64.7l15.8-5.3
		C75.4,126.1,73.7,109.3,73.1,91.9z"/>
</g>
</svg>
