<?xml version="1.0" encoding="UTF-8" standalone="no"?>
<svg width="387px" height="63px" viewBox="0 0 387 63" version="1.1" xmlns="http://www.w3.org/2000/svg" xmlns:xlink="http://www.w3.org/1999/xlink">
    <!-- Generator: Sketch 40 (33762) - http://www.bohemiancoding.com/sketch -->
    <title>Logo-mansystems (1)</title>
    <desc>Created with Sketch.</desc>
    <defs>
        <polygon id="path-1" points="28.846 0.848 0.06 0.848 0.06 62.982 57.632 62.982 57.632 0.848"></polygon>
    </defs>
    <g id="Page-1" stroke="none" stroke-width="1" fill="none" fill-rule="evenodd">
        <g id="Logo-mansystems-(1)">
            <g id="Group-4">
                <mask id="mask-2" fill="white">
                    <use xlink:href="#path-1"></use>
                </mask>
                <g id="Clip-2"></g>
                <polygon id="Fill-1" fill="#B2A533" mask="url(#mask-2)" points="30.122 36.566 57.632 36.566 57.632 26.971 30.122 26.971"></polygon>
                <polygon id="Fill-3" fill="#0082B9" mask="url(#mask-2)" points="0 62.982 24.82 62.982 24.82 0.848 0 0.848"></polygon>
            </g>
            <polygon id="Fill-5" fill="#009CD1" points="30.128 9.574 57.631 9.574 57.631 0.878 30.128 0.878"></polygon>
            <polygon id="Fill-6" fill="#F2AE32" points="30.122 18.596 57.632 18.596 57.632 9.566 30.122 9.566"></polygon>
            <polygon id="Fill-7" fill="#FFF597" points="30.113 27.546 57.632 27.546 57.632 18.518 30.113 18.518"></polygon>
            <polygon id="Fill-8" fill="#DC347B" points="30.122 45.421 57.632 45.421 57.632 36.393 30.122 36.393"></polygon>
            <polygon id="Fill-9" fill="#EC9133" points="30.122 54.401 57.632 54.401 57.632 45.374 30.122 45.374"></polygon>
            <polygon id="Fill-10" fill="#006098" points="30.122 63 57.632 63 57.632 54.359 30.122 54.359"></polygon>
            <path d="M83.057,16.184 L94.177,16.184 L95.657,26.344 C96.055,29.181 96.3,32.061 96.458,34.943 C96.734,30.699 97.019,27.943 97.216,26.62 L98.854,16.184 L109.941,16.184 L109.941,48.22 L102.979,48.22 L102.979,36.501 C102.979,32.704 103.02,27.498 103.176,20.9 C102.22,27.024 101.655,30.542 101.497,31.498 L98.738,48.22 L94.177,48.22 L91.464,32.225 C90.857,28.661 90.258,24.863 89.773,20.9 C89.978,26.862 90.02,32.022 90.02,36.383 L90.02,48.22 L83.057,48.22 L83.057,16.184" id="Fill-11" fill="#0082B9"></path>
            <path d="M133.418,36.664 L132.299,26.862 C132.097,25.064 131.937,23.221 131.781,21.382 C131.618,23.106 131.418,24.941 131.178,26.904 L129.936,36.664 L133.418,36.664 L133.418,36.664 Z M126.976,16.184 L136.697,16.184 L142.537,48.22 L134.819,48.22 L134.099,42.461 L129.1,42.461 L128.382,48.22 L121.056,48.22 L126.976,16.184 L126.976,16.184 Z" id="Fill-12" fill="#0082B9"></path>
            <path d="M153.499,16.184 L161.617,16.184 L165.376,29.181 C166.337,32.46 167.101,35.583 167.737,38.46 C167.139,34.063 167.101,30.622 167.101,28.062 L167.101,16.184 L174.138,16.184 L174.138,48.22 L166.297,48.22 L162.136,34.463 C161.217,31.38 160.499,28.302 159.898,25.143 C160.338,30.101 160.539,34.345 160.539,37.814 L160.539,48.22 L153.499,48.22 L153.499,16.184" id="Fill-13" fill="#0082B9"></path>
            <path d="M193.259,37.144 L193.259,39.739 C193.259,41.901 194.02,42.941 195.618,42.941 C197.058,42.941 198.019,41.901 198.019,40.338 C198.019,38.986 197.178,37.657 195.54,36.341 C193.06,34.383 190.775,32.741 189.019,30.941 C187.336,29.222 186.5,26.904 186.5,24.261 C186.5,18.944 189.902,15.744 195.899,15.744 C201.819,15.744 204.813,18.462 204.813,23.9 L204.813,26.54 L197.977,26.54 L197.977,24.339 C197.977,22.301 197.299,21.344 195.701,21.344 C194.417,21.344 193.581,22.301 193.581,23.699 C193.581,25.544 195.383,26.982 198.54,29.582 C201.216,31.824 203.22,33.426 204.095,35.061 C204.813,36.383 205.216,38.023 205.216,39.902 C205.216,45.341 201.698,48.658 195.458,48.658 C189.341,48.658 186.099,45.5 186.099,39.543 L186.099,37.144 L193.259,37.144" id="Fill-14" fill="#0082B9"></path>
            <path d="M220.819,35.624 L214.7,16.184 L222.379,16.184 L223.62,22.1 C223.94,23.699 224.254,25.505 224.419,27.626 C224.615,25.34 224.981,23.622 225.22,22.462 L226.498,16.184 L233.977,16.184 L228.054,35.103 L228.054,48.22 L220.819,48.22 L220.819,35.624" id="Fill-15" fill="#0082B9"></path>
            <path d="M250.659,37.144 L250.659,39.739 C250.659,41.901 251.415,42.941 253.015,42.941 C254.458,42.941 255.415,41.901 255.415,40.338 C255.415,38.986 254.583,37.657 252.937,36.341 C250.458,34.383 248.176,32.741 246.42,30.941 C244.736,29.222 243.899,26.904 243.899,24.261 C243.899,18.944 247.295,15.744 253.3,15.744 C259.221,15.744 262.218,18.462 262.218,23.9 L262.218,26.54 L255.379,26.54 L255.379,24.339 C255.379,22.301 254.698,21.344 253.097,21.344 C251.82,21.344 250.981,22.301 250.981,23.699 C250.981,25.544 252.781,26.982 255.94,29.582 C258.622,31.824 260.62,33.426 261.499,35.061 C262.218,36.383 262.62,38.023 262.62,39.902 C262.62,45.341 259.098,48.658 252.861,48.658 C246.741,48.658 243.499,45.5 243.499,39.543 L243.499,37.144 L250.659,37.144" id="Fill-16" fill="#0082B9"></path>
            <polyline id="Fill-17" fill="#0082B9" points="277.379 22.38 272.66 22.38 272.66 16.184 289.336 16.184 289.336 22.38 284.617 22.38 284.617 48.22 277.379 48.22 277.379 22.38"></polyline>
            <polyline id="Fill-18" fill="#0082B9" points="300.377 16.184 316.577 16.184 316.577 22.38 307.615 22.38 307.615 28.743 315.537 28.743 315.537 34.86 307.615 34.86 307.615 42.021 316.857 42.021 316.857 48.22 300.377 48.22 300.377 16.184"></polyline>
            <path d="M328.819,16.184 L339.937,16.184 L341.419,26.344 C341.814,29.181 342.055,32.061 342.22,34.943 C342.496,30.699 342.781,27.943 342.978,26.62 L344.62,16.184 L355.694,16.184 L355.694,48.22 L348.735,48.22 L348.735,36.501 C348.735,32.704 348.778,27.498 348.935,20.9 C347.978,27.024 347.417,30.542 347.259,31.498 L344.501,48.22 L339.937,48.22 L337.217,32.225 C336.618,28.661 336.02,24.863 335.537,20.9 C335.735,26.862 335.772,32.022 335.772,36.383 L335.772,48.22 L328.819,48.22 L328.819,16.184" id="Fill-19" fill="#0082B9"></path>
            <path d="M374.777,37.144 L374.777,39.739 C374.777,41.901 375.534,42.941 377.134,42.941 C378.577,42.941 379.533,41.901 379.533,40.338 C379.533,38.986 378.694,37.657 377.058,36.341 C374.574,34.383 372.299,32.741 370.535,30.941 C368.855,29.222 368.016,26.904 368.016,24.261 C368.016,18.944 371.411,15.744 377.418,15.744 C383.34,15.744 386.34,18.462 386.34,23.9 L386.34,26.54 L379.496,26.54 L379.496,24.339 C379.496,22.301 378.814,21.344 377.215,21.344 C375.932,21.344 375.1,22.301 375.1,23.699 C375.1,25.544 376.901,26.982 380.057,29.582 C382.735,31.824 384.74,33.426 385.619,35.061 C386.34,36.383 386.739,38.023 386.739,39.902 C386.739,45.341 383.22,48.658 376.976,48.658 C370.859,48.658 367.619,45.5 367.619,39.543 L367.619,37.144 L374.777,37.144" id="Fill-20" fill="#0082B9"></path>
        </g>
    </g>
</svg>