<?xml version="1.0" encoding="UTF-8" standalone="no"?>
<svg
   xmlns:dc="http://purl.org/dc/elements/1.1/"
   xmlns:cc="http://creativecommons.org/ns#"
   xmlns:rdf="http://www.w3.org/1999/02/22-rdf-syntax-ns#"
   xmlns:svg="http://www.w3.org/2000/svg"
   xmlns="http://www.w3.org/2000/svg"
   viewBox="0 0 492.1875 162.55"
   height="162.55"
   width="492.1875"
   xml:space="preserve"
   version="1.1"
   id="svg2"><metadata
     id="metadata8"><rdf:RDF><cc:Work
         rdf:about=""><dc:format>image/svg+xml</dc:format><dc:type
           rdf:resource="http://purl.org/dc/dcmitype/StillImage" /></cc:Work></rdf:RDF></metadata><defs
     id="defs6" /><g
     transform="matrix(1.25,0,0,-1.25,0,162.55)"
     id="g10"><g
       transform="scale(0.1,0.1)"
       id="g12"><path
         id="path14"
         style="fill:#287ac8;fill-opacity:1;fill-rule:nonzero;stroke:none"
         d="m 448.391,670.332 c 0,0 102.586,410.058 118.855,448.808 16.262,38.77 41.504,142.74 171.602,175.25 87.148,21.78 158.906,8.31 209.347,-42.1 35.743,-35.73 78.195,-114.16 21.258,-274.821 C 905.801,797.793 781.719,779.746 730.441,779.746 c -51.308,0 -90.07,0 -90.07,0 l -21.289,0 18.918,87.567 c 0,0 88.281,0.625 115.73,0.625 27.454,0 82.649,31.378 111.262,80.703 18.66,32.152 37.547,66.989 47.559,148.299 7.402,60.21 -25.481,107.3 -75.52,119.29 -45.683,10.94 -103.574,-0.64 -132.351,-29.39 -35.996,-35.99 -49.856,-62.68 -79.875,-167.71 -30.02,-105.021 -86.328,-348.798 -86.328,-348.798 l -90.086,0" /><path
         id="path16"
         style="fill:#231f20;fill-opacity:1;fill-rule:nonzero;stroke:none"
         d="m 422.422,779.746 c 0,0 -171.621,-1.543 -184.051,-1.543 C 206.68,774.891 169.727,759.121 145.09,734.461 120.617,710 88.4688,673.641 93.2422,606.816 c 2.7344,-38.183 26.3208,-68.789 50.0898,-76.289 23.758,-7.5 59.969,-7.566 59.969,-7.566 l 158.137,-2.461 -20.559,-85.129 -186.121,-0.09 c -33.899,0 -136.9846,20.11 -152.39472,135.254 -6.89453,51.516 -5.70312,87.59 18.88672,147.219 12.5898,30.539 37.7461,65.82 80.754,101.172 33.543,27.586 68.797,39.238 100.34,45.984 29.465,6.301 73.554,4.621 81.074,4.621 7.5,0 162.727,-1.945 162.727,-1.945 l -23.723,-87.84" /><path
         id="path18"
         style="fill:#231f20;fill-opacity:1;fill-rule:nonzero;stroke:none"
         d="m 801.777,525.625 c 0,0 268.233,1.25 280.663,1.25 31.69,3.301 68.65,19.102 93.28,43.73 24.48,24.473 56.64,60.84 51.85,127.665 -2.73,38.187 -26.32,68.789 -50.09,76.289 -23.76,7.5 -59.97,7.57 -59.97,7.57 l -223.768,-2.383 81.707,89.969 197.811,0.07 c 26.69,0 129.78,-20.109 145.19,-135.234 6.9,-51.535 5.71,-87.578 -18.88,-147.227 -12.59,-30.527 -37.75,-65.82 -80.76,-101.183 -33.54,-27.578 -68.79,-39.227 -100.34,-45.965 -29.47,-6.301 -73.56,-4.641 -81.07,-4.641 -7.5,0 -173.884,1.27 -173.884,1.27 l -61.739,88.82" /><path
         id="path20"
         style="fill:#231f20;fill-opacity:1;fill-rule:nonzero;stroke:none"
         d="M 438.996,638.719 331.602,208.164 c 0,0 -26.18,-83.32 36.789,-146.289 C 409.551,20.6914 466.973,1.01563 502.461,0 c 62.394,-1.79688 105.703,-2.69531 154.902,32.4609 51.094,36.4922 68.36,47.6954 117.403,160.8481 21.972,50.695 24.316,71.906 25.683,80.91 10.989,72.754 -4.246,131.308 -9.89,148.523 0,0 -36.778,100.977 -124.2,100.977 L 545.41,523.406 521.145,436.805 c 0,0 82.898,0 101.101,0 69.055,0 112.539,-51.961 90.723,-154.461 C 700.93,225.781 700.02,227.48 679.277,184.375 665.461,155.684 632.793,113.418 608,101.504 579.641,87.9102 550.762,72.9375 486.855,85.5664 c -27.402,5.418 -60.566,20.9766 -68.757,56.7696 -8.176,35.797 -2.356,65.855 6.57,103.66 5.742,24.238 99.219,391.719 99.219,391.719 l -84.891,1.004" /><path
         id="path22"
         style="fill:#287ac8;fill-opacity:1;fill-rule:nonzero;stroke:none"
         d="m 1705.07,804.598 60.57,0 c 44.73,0 60.01,0 81.79,-10.75 30,-15.285 40.4,-44.727 34.52,-76.426 -5.88,-31.699 -27.18,-61.145 -62.84,-76.418 -25.77,-10.762 -41.06,-10.762 -85.79,-10.762 l -60.57,0 32.32,174.356 z m -112.5,-380.985 41.89,0 31.27,168.7 74.72,0 c 57.75,0 86.6,9.054 112.64,24.347 35.02,20.945 62.57,56.61 70.75,100.762 8.19,44.16 -6.14,79.812 -33.4,100.762 -20.38,15.281 -45.87,24.343 -103.61,24.343 l -116.62,0 -77.64,-418.914" /><path
         id="path24"
         style="fill:#287ac8;fill-opacity:1;fill-rule:nonzero;stroke:none"
         d="m 1979.43,733.27 39.62,0 -8.29,-44.727 1.14,0 c 26.76,43.594 63.12,50.383 96.94,52.656 l -7.77,-41.894 c -28.16,-2.262 -53.82,-12.45 -72.46,-30.575 -16.74,-16.98 -28.75,-39.054 -33.38,-63.964 l -33.57,-181.153 -39.62,0 57.39,309.657" /><path
         id="path26"
         style="fill:#287ac8;fill-opacity:1;fill-rule:nonzero;stroke:none"
         d="m 2148.32,599.676 c 24.86,73.019 91.52,105.851 140.2,105.851 49.25,0 102.61,-32.832 101.53,-105.851 l -241.73,0 z m 275.31,-35.672 c 7.26,30 9.12,64.539 -5.62,97.937 -14.95,38.497 -55.62,78.692 -123.45,79.258 -90.32,-1.707 -174.72,-75.293 -190.99,-163.035 -17,-91.719 44.72,-161.914 131.33,-161.914 71.33,0 139.49,46.992 172.44,108.699 l -41.9,0 c -21.28,-38.504 -67.67,-71.902 -124.49,-73.027 -60.57,0 -107.63,51.516 -99.24,112.082 l 281.92,0" /><path
         id="path28"
         style="fill:#287ac8;fill-opacity:1;fill-rule:nonzero;stroke:none"
         d="m 2516.13,733.27 39.63,0 -6.61,-35.665 -0.92,1.133 -0.21,-1.133 1.13,0 c 23.21,30.579 63.56,43.594 92.43,43.594 26.05,0 78.75,-11.894 93.15,-59.441 32.02,47.547 89.14,59.441 115.18,59.441 47.55,0 118.72,-28.308 99.21,-133.601 l -34.1,-183.985 -39.63,0 33.26,179.461 c 6.3,33.969 3.12,50.383 -2.19,64.531 -8.92,22.071 -29.76,37.922 -63.17,37.922 -33.4,0 -60.11,-15.851 -77.22,-37.922 -10.54,-14.148 -19.82,-30.562 -26.12,-64.531 l -33.26,-179.461 -39.62,0 33.26,179.461 c 6.29,33.969 3.11,50.383 -2.19,64.531 -8.93,22.071 -29.77,37.922 -63.17,37.922 -33.4,0 -60.11,-15.851 -77.22,-37.922 -10.55,-14.148 -19.82,-30.562 -26.12,-64.531 l -33.26,-179.461 -39.62,0 57.38,309.657" /><path
         id="path30"
         style="fill:#287ac8;fill-opacity:1;fill-rule:nonzero;stroke:none"
         d="m 3046.56,733.27 39.63,0 -57.39,-309.657 -39.63,0 57.39,309.657 z m 20.26,109.257 39.63,0 -13.23,-71.328 -39.63,0 13.23,71.328" /><path
         id="path32"
         style="fill:#287ac8;fill-opacity:1;fill-rule:nonzero;stroke:none"
         d="m 3371.86,423.613 -37.37,0 8.92,48.125 -1.13,0 c -15.63,-23.215 -51.6,-55.488 -109.35,-55.488 -61.14,0 -87.38,29.441 -97.82,46.426 -17.04,27.168 -14.8,66.804 -8.71,99.637 l 31.69,170.957 39.62,0 -31.58,-170.391 c -7.24,-39.07 -3.47,-64.539 6.97,-81.524 17,-24.343 44.93,-29.433 66.44,-29.433 22.08,0 46.8,5.09 70.28,24.902 21.48,18.117 39.41,38.496 49.48,92.852 l 30.32,163.594 39.63,0 -57.39,-309.657" /><path
         id="path34"
         style="fill:#287ac8;fill-opacity:1;fill-rule:nonzero;stroke:none"
         d="m 3504.53,733.27 39.63,0 -6.61,-35.665 -0.93,1.133 -0.2,-1.133 1.13,0 c 23.21,30.579 63.56,43.594 92.42,43.594 26.05,0 78.75,-11.894 93.15,-59.441 32.03,47.547 89.14,59.441 115.18,59.441 47.55,0 118.73,-28.308 99.22,-133.601 l -34.11,-183.985 -39.62,0 33.26,179.461 c 6.29,33.969 3.12,50.383 -2.19,64.531 -8.93,22.071 -29.77,37.922 -63.17,37.922 -33.4,0 -60.11,-15.851 -77.23,-37.922 -10.54,-14.148 -19.82,-30.562 -26.11,-64.531 l -33.25,-179.461 -39.64,0 33.26,179.461 c 6.3,33.969 3.12,50.383 -2.18,64.531 -8.94,22.071 -29.77,37.922 -63.17,37.922 -33.41,0 -60.12,-15.851 -77.24,-37.922 -10.54,-14.148 -19.81,-30.562 -26.1,-64.531 l -33.26,-179.461 -39.63,0 57.39,309.657" /><path
         id="path36"
         style="fill:#231f20;fill-opacity:1;fill-rule:nonzero;stroke:none"
         d="m 1600.58,207.781 16.38,0 c 14.22,0 19.62,-0.535 25.92,-3.054 8.82,-3.43 15.66,-12.247 15.66,-22.5 0,-10.09 -5.76,-19.266 -14.04,-22.684 -7.2,-2.883 -14.04,-3.418 -25.2,-3.418 l -18.72,0 0,51.656 z m -13.32,-63.718 33.48,0 c 15.66,-0.176 24.47,0.722 35.82,7.382 9.36,6.297 15.3,17.996 15.3,30.782 0,15.293 -8.82,27.351 -22.14,32.753 4.67,3.778 14.58,11.161 14.58,26.825 0,5.402 -1.62,35.461 -43.56,35.461 l -33.48,0 0,-133.203 z m 13.32,121.14 17.81,0 c 13.68,0 21.79,-2.344 27,-8.281 3.43,-4.141 5.59,-8.457 5.59,-14.578 0,-7.922 -4.5,-15.481 -10.8,-18.719 -6.48,-3.246 -12.43,-3.781 -22.86,-3.781 l -16.74,0 0,45.359" /><path
         id="path38"
         style="fill:#231f20;fill-opacity:1;fill-rule:nonzero;stroke:none"
         d="m 1704.07,277.266 0,-82.981 c 0,-9.726 1.44,-18.543 4.5,-24.117 8.11,-14.945 21.25,-16.391 27.54,-16.391 6.3,0 19.45,1.446 27.54,16.391 3.06,5.574 4.51,14.391 4.51,24.117 l 0,82.981 13.32,0 0,-82.981 c 0,-11.16 -1.81,-20.699 -5.04,-27.722 -9.18,-19.981 -27.9,-24.844 -40.33,-24.844 -12.41,0 -31.13,4.863 -40.31,24.844 -3.25,7.023 -5.05,16.562 -5.05,27.722 l 0,82.981 13.32,0" /><path
         id="path40"
         style="fill:#231f20;fill-opacity:1;fill-rule:nonzero;stroke:none"
         d="m 1812.43,181.316 c 0.73,-16.738 11.34,-27.539 27.73,-27.539 14.04,0 26.81,10.801 26.81,26.465 0,20.52 -20.7,25.742 -29.69,28.438 -12.07,3.605 -34.57,8.644 -34.57,35.097 0,20.703 16.38,35.821 37.45,35.821 21.77,0 36.89,-16.739 36.89,-36.172 l -13.32,0 c 0,13.496 -10.98,24.113 -23.57,24.113 -15.3,0 -24.12,-11.699 -24.12,-23.215 0,-16.199 14.21,-19.98 31.67,-25.019 32.76,-8.828 32.58,-34.559 32.58,-38.524 0,-20.519 -16.56,-39.062 -40.13,-39.062 -17.28,0 -40.51,10.261 -41.05,39.597 l 13.32,0" /><path
         id="path42"
         style="fill:#231f20;fill-opacity:1;fill-rule:nonzero;stroke:none"
         d="m 1898.47,144.063 13.3203,0 0,133.203 -13.3203,0 0,-133.203 z" /><path
         id="path44"
         style="fill:#231f20;fill-opacity:1;fill-rule:nonzero;stroke:none"
         d="m 1938.97,277.266 18,0 74.34,-110.528 0.36,0 0,110.528 13.32,0 0,-133.203 -13.32,0 -79.02,117.175 -0.36,0 0,-117.175 -13.32,0 0,133.203" /><path
         id="path46"
         style="fill:#231f20;fill-opacity:1;fill-rule:nonzero;stroke:none"
         d="m 2071.27,277.266 72.9,0 0,-12.063 -59.58,0 0,-47.879 57.6,0 0,-12.062 -57.6,0 0,-49.137 59.58,0 0,-12.062 -72.9,0 0,133.203" /><path
         id="path48"
         style="fill:#231f20;fill-opacity:1;fill-rule:nonzero;stroke:none"
         d="m 2172.43,181.316 c 0.72,-16.738 11.34,-27.539 27.72,-27.539 14.04,0 26.82,10.801 26.82,26.465 0,20.52 -20.7,25.742 -29.7,28.438 -12.06,3.605 -34.56,8.644 -34.56,35.097 0,20.703 16.38,35.821 37.44,35.821 21.78,0 36.9,-16.739 36.9,-36.172 l -13.32,0 c 0,13.496 -10.98,24.113 -23.58,24.113 -15.3,0 -24.12,-11.699 -24.12,-23.215 0,-16.199 14.22,-19.98 31.68,-25.019 32.76,-8.828 32.58,-34.559 32.58,-38.524 0,-20.519 -16.56,-39.062 -40.14,-39.062 -17.28,0 -40.5,10.261 -41.04,39.597 l 13.32,0" /><path
         id="path50"
         style="fill:#231f20;fill-opacity:1;fill-rule:nonzero;stroke:none"
         d="m 2262.07,181.316 c 0.72,-16.738 11.33,-27.539 27.72,-27.539 14.04,0 26.82,10.801 26.82,26.465 0,20.52 -20.7,25.742 -29.7,28.438 -12.07,3.605 -34.57,8.644 -34.57,35.097 0,20.703 16.39,35.821 37.45,35.821 21.78,0 36.89,-16.739 36.89,-36.172 l -13.32,0 c 0,13.496 -10.97,24.113 -23.57,24.113 -15.3,0 -24.13,-11.699 -24.13,-23.215 0,-16.199 14.23,-19.98 31.68,-25.019 32.77,-8.828 32.59,-34.559 32.59,-38.524 0,-20.519 -16.57,-39.062 -40.14,-39.062 -17.29,0 -40.5,10.261 -41.04,39.597 l 13.32,0" /><path
         id="path52"
         style="fill:#231f20;fill-opacity:1;fill-rule:nonzero;stroke:none"
         d="m 2523.06,178.984 c -14.22,-26.105 -39.96,-37.265 -61.38,-37.265 -37.25,0 -69.66,29.344 -69.66,68.758 0,39.425 31.5,68.945 69.48,68.945 34.2,0 55.8,-23.934 61.02,-36.356 l -14.94,0 c -14.58,21.778 -38.15,24.297 -46.26,24.297 -31.14,0 -55.98,-27.363 -55.98,-57.062 0,-31.141 27.36,-56.524 56.16,-56.524 6.66,0 28.44,0.911 46.62,25.207 l 14.94,0" /><path
         id="path54"
         style="fill:#231f20;fill-opacity:1;fill-rule:nonzero;stroke:none"
         d="m 2551.68,209.941 c 0,33.125 27,57.598 57.06,57.598 31.5,0 57.24,-25.918 57.24,-57.062 0,-31.68 -26.46,-56.7 -57.24,-56.7 -30.96,0 -57.06,25.743 -57.06,56.164 z m -13.32,0 c 0,-37.441 32.58,-68.222 70.38,-68.222 37.26,0 70.56,29.707 70.56,68.945 0,39.238 -33.12,68.934 -70.56,68.934 -35.46,0 -70.38,-27.715 -70.38,-69.657" /><path
         id="path56"
         style="fill:#231f20;fill-opacity:1;fill-rule:nonzero;stroke:none"
         d="m 2700.54,277.266 18,0 74.34,-110.528 0.36,0 0,110.528 13.32,0 0,-133.203 -13.32,0 -79.02,117.175 -0.36,0 0,-117.175 -13.32,0 0,133.203" /><path
         id="path58"
         style="fill:#231f20;fill-opacity:1;fill-rule:nonzero;stroke:none"
         d="m 2837.52,181.316 c 0.72,-16.738 11.34,-27.539 27.71,-27.539 14.05,0 26.82,10.801 26.82,26.465 0,20.52 -20.69,25.742 -29.69,28.438 -12.06,3.605 -34.56,8.644 -34.56,35.097 0,20.703 16.38,35.821 37.43,35.821 21.79,0 36.9,-16.739 36.9,-36.172 l -13.31,0 c 0,13.496 -10.98,24.113 -23.59,24.113 -15.29,0 -24.12,-11.699 -24.12,-23.215 0,-16.199 14.23,-19.98 31.69,-25.019 32.76,-8.828 32.58,-34.559 32.58,-38.524 0,-20.519 -16.56,-39.062 -40.15,-39.062 -17.27,0 -40.49,10.261 -41.03,39.597 l 13.32,0" /><path
         id="path60"
         style="fill:#231f20;fill-opacity:1;fill-rule:nonzero;stroke:none"
         d="m 2936.7,277.266 0,-82.981 c 0,-9.726 1.44,-18.543 4.49,-24.117 8.1,-14.945 21.24,-16.391 27.54,-16.391 6.31,0 19.45,1.446 27.54,16.391 3.07,5.574 4.5,14.391 4.5,24.117 l 0,82.981 13.32,0 0,-82.981 c 0,-11.16 -1.79,-20.699 -5.04,-27.722 -9.17,-19.981 -27.9,-24.844 -40.32,-24.844 -12.42,0 -31.14,4.863 -40.32,24.844 -3.24,7.023 -5.03,16.562 -5.03,27.722 l 0,82.981 13.32,0" /><path
         id="path62"
         style="fill:#231f20;fill-opacity:1;fill-rule:nonzero;stroke:none"
         d="m 3042.54,277.266 13.32,0 0,-121.141 55.07,0 0,-12.062 -68.39,0 0,133.203" /><path
         id="path64"
         style="fill:#231f20;fill-opacity:1;fill-rule:nonzero;stroke:none"
         d="m 3134.35,265.203 -30.6,0 0,12.063 74.34,0 0,-12.063 -30.42,0 0,-121.14 -13.32,0 0,121.14" /><path
         id="path66"
         style="fill:#231f20;fill-opacity:1;fill-rule:nonzero;stroke:none"
         d="m 3237.86,262.137 25.56,-61.192 -51.66,0 26.1,61.192 z m -64.44,-118.074 13.86,0 19.44,44.824 61.92,0 19.27,-44.824 14.57,0 -57.23,133.203 -14.95,0 -56.88,-133.203" /><path
         id="path68"
         style="fill:#231f20;fill-opacity:1;fill-rule:nonzero;stroke:none"
         d="m 3317.96,277.266 18,0 74.34,-110.528 0.36,0 0,110.528 13.32,0 0,-133.203 -13.32,0 -79.02,117.175 -0.36,0 0,-117.175 -13.32,0 0,133.203" /><path
         id="path70"
         style="fill:#231f20;fill-opacity:1;fill-rule:nonzero;stroke:none"
         d="m 3469.34,265.203 -30.6,0 0,12.063 74.34,0 0,-12.063 -30.42,0 0,-121.14 -13.32,0 0,121.14" /><path
         id="path72"
         style="fill:#231f20;fill-opacity:1;fill-rule:nonzero;stroke:none"
         d="m 3531.62,181.316 c 0.72,-16.738 11.34,-27.539 27.72,-27.539 14.04,0 26.82,10.801 26.82,26.465 0,20.52 -20.7,25.742 -29.7,28.438 -12.06,3.605 -34.56,8.644 -34.56,35.097 0,20.703 16.38,35.821 37.44,35.821 21.78,0 36.9,-16.739 36.9,-36.172 l -13.32,0 c 0,13.496 -10.98,24.113 -23.58,24.113 -15.3,0 -24.12,-11.699 -24.12,-23.215 0,-16.199 14.22,-19.98 31.68,-25.019 32.76,-8.828 32.58,-34.559 32.58,-38.524 0,-20.519 -16.56,-39.062 -40.14,-39.062 -17.28,0 -40.5,10.261 -41.04,39.597 l 13.32,0" /><path
         id="path74"
         style="fill:#231f20;fill-opacity:1;fill-rule:nonzero;stroke:none"
         d="m 3680.47,207.781 16.39,0 c 14.21,0 19.62,-0.535 25.91,-3.054 8.82,-3.43 15.67,-12.247 15.67,-22.5 0,-10.09 -5.76,-19.266 -14.05,-22.684 -7.19,-2.883 -14.04,-3.418 -25.19,-3.418 l -18.73,0 0,51.656 z m -13.32,-63.718 33.49,0 c 15.66,-0.176 24.48,0.722 35.82,7.382 9.35,6.297 15.3,17.996 15.3,30.782 0,15.293 -8.82,27.351 -22.14,32.753 4.68,3.778 14.58,11.161 14.58,26.825 0,5.402 -1.62,35.461 -43.56,35.461 l -33.49,0 0,-133.203 z m 13.32,121.14 17.82,0 c 13.68,0 21.79,-2.344 27,-8.281 3.42,-4.141 5.59,-8.457 5.59,-14.578 0,-7.922 -4.5,-15.481 -10.8,-18.719 -6.49,-3.246 -12.42,-3.781 -22.86,-3.781 l -16.75,0 0,45.359" /><path
         id="path76"
         style="fill:#231f20;fill-opacity:1;fill-rule:nonzero;stroke:none"
         d="m 3758.59,277.266 14.76,0 46.98,-116.641 47.16,116.641 14.4,0 -55.26,-133.203 -13.13,0 -54.91,133.203" /></g></g></svg>