<?xml version="1.0" encoding="utf-8"?>
<!-- Generator: Adobe Illustrator 21.1.0, SVG Export Plug-In . SVG Version: 6.00 Build 0)  -->
<svg version="1.1" id="Layer_1" xmlns="http://www.w3.org/2000/svg" xmlns:xlink="http://www.w3.org/1999/xlink" x="0px" y="0px"
	 viewBox="0 0 426 341.5" style="enable-background:new 0 0 426 341.5;" xml:space="preserve">
<style type="text/css">
	.st0{opacity:0.18;clip-path:url(#XMLID_3_);}
	.st1{fill:#00458D;}
	.st2{font-family:'Ubuntu';}
	.st3{font-size:40px;}
	.st4{fill:#F21C00;}
	.st5{font-family:'Ubuntu-Light';}
	.st6{font-size:13px;}
	.st7{font-size:19px;}
</style>
<g>
	<g>
		<defs>
			<polygon id="SVGID_1_" points="89.6,333.4 46,218.6 2.4,103.8 44.6,95.9 86.8,87.9 88.2,210.7 			"/>
		</defs>
		<clipPath id="SVGID_2_">
			<use xlink:href="#SVGID_1_"  style="overflow:visible;"/>
		</clipPath>
	</g>
	<g>
		<defs>
			<polygon id="XMLID_1_" points="92.9,334.8 92.7,210.5 92.5,86.2 47.4,94.7 2.3,103.2 47.6,219 			"/>
		</defs>
		<use xlink:href="#XMLID_1_"  style="overflow:visible;fill:#F9F9F9;"/>
		<clipPath id="XMLID_3_">
			<use xlink:href="#XMLID_1_"  style="overflow:visible;"/>
		</clipPath>
		
			<rect x="16.6" y="141.4" transform="matrix(0.9825 -0.186 0.186 0.9825 -25.4381 12.8403)" class="st0" width="78.2" height="1.2"/>
		<rect x="1.7" y="94.7" transform="matrix(0.9825 -0.186 0.186 0.9825 -16.8952 10.5338)" class="st0" width="91.9" height="1.2"/>
		
			<rect x="25.5" y="188.5" transform="matrix(0.9825 -0.186 0.186 0.9825 -34.0519 15.3237)" class="st0" width="78.2" height="1.2"/>
		
			<rect x="34.5" y="235.6" transform="matrix(0.9825 -0.186 0.186 0.9825 -42.6657 17.8071)" class="st0" width="78.2" height="1.2"/>
		
			<rect x="43.4" y="282.8" transform="matrix(0.9825 -0.186 0.186 0.9825 -51.2796 20.2905)" class="st0" width="78.2" height="1.2"/>
	</g>
</g>
<text transform="matrix(1 0 0 1 0 32.5)" class="st1 st2 st3">Expertise</text>
<text transform="matrix(1 0 0 1 94.8497 281.7292)"><tspan x="0" y="0" class="st4 st5 st6">1     </tspan><tspan x="22.2" y="0" class="st2 st7">Geen activiteit</tspan></text>
<text transform="matrix(1 0 0 1 94.8496 233.25)"><tspan x="0" y="0" class="st4 st5 st6">2     </tspan><tspan x="22.2" y="0" class="st2 st7">Activiteit valt binnen kennis gebied</tspan></text>
<text transform="matrix(1 0 0 1 94.8496 184)"><tspan x="0" y="0" class="st4 st5 st6">3     </tspan><tspan x="22.2" y="0" class="st2 st7">Bedrijf doet dit soms</tspan></text>
<text transform="matrix(1 0 0 1 94.8498 135)"><tspan x="0" y="0" class="st4 st5 st6">4     </tspan><tspan x="22.2" y="0" class="st2 st7">Bedrijf doet dit meestal</tspan></text>
<text transform="matrix(1 0 0 1 94.8496 86.868)"><tspan x="0" y="0" class="st4 st5 st6">5     </tspan><tspan x="22.2" y="0" class="st2 st7">Core business</tspan></text>
</svg>
