<?xml version="1.0" encoding="utf-8"?>
<!-- Generator: Adobe Illustrator 21.1.0, SVG Export Plug-In . SVG Version: 6.00 Build 0)  -->
<svg version="1.1" id="Layer_1" xmlns="http://www.w3.org/2000/svg" xmlns:xlink="http://www.w3.org/1999/xlink" x="0px" y="0px"
	 viewBox="0 0 600 600" style="enable-background:new 0 0 600 600;" xml:space="preserve">
<style type="text/css">
	.st0{fill:none;}
	.st1{font-family:'ArialMT';}
	.st2{font-size:10.2319px;}
	.st3{opacity:0.27;}
	.st4{fill:#F7F7F7;}
	.st5{font-size:11.2817px;}
	.st6{opacity:0.21;fill:#E2E2E2;enable-background:new    ;}
	.st7{font-size:12px;}
	.st8{opacity:0.24;fill:#E2E2E2;enable-background:new    ;}
</style>
<path id="SVGID_x5F_1_x5F_" class="st0" d="M88.5,298.6c0-116.6,94.3-210.9,210.9-210.9v210.9H88.5z"/>
<text transform="matrix(1 0 0 1 43.5391 42.7808)" class="st1 st2"> </text>
<path id="SVGID_x5F_2_x5F_" class="st0" d="M299.3,298.6H66.9C66.9,427.1,170.8,531,299.3,531V298.6z"/>
<text transform="matrix(1 0 0 1 43.5391 42.7808)" class="st1 st2"> </text>
<path id="SVGID_x5F_3_x5F_" class="st0" d="M535.9,298.6H299.3V531C430,531,535.9,427.1,535.9,298.6z"/>
<text transform="matrix(1 0 0 1 43.5391 42.7808)" class="st1 st2"> </text>
<path id="SVGID_x5F_4_x5F_" class="st0" d="M299.3,298.6V91.8c123,0,222.5,92.5,222.5,206.8H299.3z"/>
<text transform="matrix(1 0 0 1 43.5391 42.7808)" class="st1 st2"> </text>
<g class="st3">
	<path id="SVGID_x5F_1_x5F__2_" class="st4" d="M298.9,49.1c-137.1,0-248.2,111.1-248.2,248.2s111.1,248.2,248.2,248.2
		s248.2-111.1,248.2-248.2S436,49.1,298.9,49.1z"/>
	<text transform="matrix(1 0 0 1 16.8799 16.5293)" class="st4 st1 st5"> </text>
	<text transform="matrix(1 0 0 1 16.8799 16.5293)" class="st4 st1 st5"> </text>
</g>
<path class="st6" d="M58,242C34,343,75,460,191,521l108.7-222.4L58,242z"/>
<path id="SVGID_x5F_2_x5F__1_" class="st0" d="M287.8,319.6L46.1,263c-24,101,17,218,133,279L287.8,319.6z"/>
<text class="st1 st7"> </text>
<path id="SVGID_x5F_3_x5F__2_" class="st0" d="M51.4,235.5C68.4,146.5,166,47.8,297,42.8l-7.4,248.1L51.4,235.5z"/>
<text class="st1 st7"> </text>
<text transform="matrix(1 0 0 1 43.5391 42.7808)" class="st1 st2"> </text>
<path id="SVGID_x5F_2_x5F__2_" class="st0" d="M299.3,298.6H66.9C66.9,427.1,170.8,531,299.3,531V298.6z"/>
<text transform="matrix(1 0 0 1 43.5391 42.7808)" class="st1 st2"> </text>
<path id="SVGID_x5F_3_x5F__1_" class="st0" d="M535.9,298.6H299.3V531C430,531,535.9,427.1,535.9,298.6z"/>
<text transform="matrix(1 0 0 1 43.5391 42.7808)" class="st1 st2"> </text>
<path class="st8" d="M542,352c23-112-27-288-242-302l-1,249L542,352z"/>
<path id="SVGID_x5F_4_x5F__2_" class="st0" d="M299,286.3l1-249c215,14,265,190,242,302L299,286.3z"/>
<text class="st1 st7"> </text>
<path id="SVGID_x5F_4_x5F__1_" class="st0" d="M299.3,298.6V91.8c123,0,222.5,92.5,222.5,206.8H299.3z"/>
<text transform="matrix(1 0 0 1 43.5391 42.7808)" class="st1 st2"> </text>
<path id="SVGID_x5F_1_x5F__1_" class="st0" d="M299.1,298.3L51.3,243C60.6,162.8,132,62.7,300,50L299.1,298.3z"/>
<text class="st1 st7"> </text>
<path id="SVGID_x5F_1_x5F__3_" class="st0" d="M300.9,42.8C410.5,50,568.7,78.7,557.6,354.7"/>
<text><textPath  xlink:href="#SVGID_x5F_1_x5F__3_" startOffset="26.1719%">
<tspan  style="font-family:'Ubuntu'; font-size:18px;">Hardware</tspan></textPath>
</text>
<path id="SVGID_x5F_2_x5F__3_" class="st0" d="M51.4,237.4C92.5,130.5,141,83.5,300,48"/>
<text><textPath  xlink:href="#SVGID_x5F_2_x5F__3_" startOffset="13.9787%">
<tspan  style="font-family:'Ubuntu'; font-size:18px;">Diensten en producten</tspan></textPath>
</text>
<text class="st1 st7"> </text>
<path id="SVGID_x5F_3_x5F__3_" class="st0" d="M188,533.1c233.1,102.3,366.9-103.9,366.9-176.3"/>
<text><textPath  xlink:href="#SVGID_x5F_3_x5F__3_" startOffset="72.9248%">
<tspan  style="font-family:'Ubuntu'; font-size:18px;">Software</tspan></textPath>
</text>
<text class="st1 st7"> </text>
<path d="M301,29"/>
<path id="SVGID_x5F_4_x5F__4_" class="st0" d="M79.4,137.4C-65.2,346.9,112,517.3,183.1,531"/>
<text><textPath  xlink:href="#SVGID_x5F_4_x5F__4_" startOffset="83.0566%">
<tspan  style="font-family:'Ubuntu'; font-size:18px;">Data</tspan></textPath>
</text>
</svg>
