<svg xmlns="http://www.w3.org/2000/svg" viewBox="0 0 642.11604 629.84761"><defs><style>.cls-1{fill:none;}.cls-2,.cls-5,.cls-6{isolation:isolate;}.cls-3{opacity:0.27;}.cls-4{fill:#f7f7f7;}.cls-5,.cls-6{fill:#e2e2e2;}.cls-5{opacity:0.21;}.cls-6{opacity:0.24;}</style></defs><title>outerlayer</title><g id="Circle"><path id="SVGID_1_" class="cls-1" d="M49.29884,303.14355c0-140.2233,113.40529-253.62856,253.62856-253.62856V303.14355Z" transform="translate(28.0111 11.09614)"/><path id="SVGID_2_" class="cls-1" d="M302.80714,303.14355H23.32266c0,154.53424,124.95026,279.48449,279.48448,279.48449Z" transform="translate(28.0111 11.09614)"/><path id="SVGID_3_" class="cls-1" d="M587.3426,303.14355H302.80714V582.628C459.98712,582.628,587.3426,457.67779,587.3426,303.14355Z" transform="translate(28.0111 11.09614)"/><path id="SVGID_4_" class="cls-1" d="M302.80714,303.14355V54.44564c147.91994,0,267.57874,111.2406,267.57874,248.69791Z" transform="translate(28.0111 11.09614)"/><g class="cls-3"><path id="SVGID_1_2" data-name="SVGID_1_" class="cls-4" d="M302.32611,3.09457c-164.87662,0-298.48559,133.609-298.48559,298.48558s133.609,298.48561,298.48559,298.48561,298.48557-133.609,298.48557-298.48561S467.20272,3.09457,302.32611,3.09457Z" transform="translate(28.0111 11.09614)"/></g><path class="cls-5" d="M12.61951,235.07632C-16.24292,356.539,33.06373,497.24336,172.56545,570.602L303.28821,303.14355Z" transform="translate(28.0111 11.09614)"/><path id="SVGID_2_2" data-name="SVGID_2_" class="cls-1" d="M288.97723,328.39817-1.69145,260.33094c-28.86243,121.46271,20.44422,262.167,159.946,335.52571Z" transform="translate(28.0111 11.09614)"/><path id="SVGID_3_2" data-name="SVGID_3_" class="cls-1" d="M4.68234,227.25941C25.12656,120.22791,142.50043,1.53119,300.04117-4.48182l-8.89924,298.36533Z" transform="translate(28.0111 11.09614)"/><path id="SVGID_2_3" data-name="SVGID_2_" class="cls-1" d="M302.80714,303.14355H23.32266c0,154.53424,124.95026,279.48449,279.48448,279.48449Z" transform="translate(28.0111 11.09614)"/><path id="SVGID_3_3" data-name="SVGID_3_" class="cls-1" d="M587.3426,303.14355H302.80714V582.628C459.98712,582.628,587.3426,457.67779,587.3426,303.14355Z" transform="translate(28.0111 11.09614)"/><path class="cls-6" d="M594.67844,367.36244C622.33826,232.67112,562.20821,21.01332,303.649,4.17691l-1.2026,299.44767Z" transform="translate(28.0111 11.09614)"/><path id="SVGID_4_2" data-name="SVGID_4_" class="cls-1" d="M302.44637,288.35153,303.649-11.09614C562.20821,5.74028,622.33826,217.39807,594.67844,352.08939Z" transform="translate(28.0111 11.09614)"/><path id="SVGID_4_3" data-name="SVGID_4_" class="cls-1" d="M302.80714,303.14355V54.44564c147.91994,0,267.57874,111.2406,267.57874,248.69791Z" transform="translate(28.0111 11.09614)"/><path id="SVGID_1_3" data-name="SVGID_1_" class="cls-1" d="M302.56664,302.78275,4.56208,236.27892C15.74627,139.83032,101.612,19.44994,303.649,4.17691Z" transform="translate(28.0111 11.09614)"/><path id="SVGID_1_4" data-name="SVGID_1_" class="cls-1" d="M304.73131-4.48182C436.5364,4.17691,626.7879,38.69156,613.439,370.60948" transform="translate(28.0111 11.09614)"/><path id="SVGID_2_4" data-name="SVGID_2_" class="cls-1" d="M4.68234,229.54435C54.10925,100.9863,112.4354,44.464,303.649,1.77171" transform="translate(28.0111 11.09614)"/><path id="SVGID_3_4" data-name="SVGID_3_" class="cls-1" d="M168.95765,585.15347C449.284,708.17955,610.192,460.20322,610.192,373.13491" transform="translate(28.0111 11.09614)"/><path d="M304.85158-21.07771" transform="translate(28.0111 11.09614)"/><path id="SVGID_4_4" data-name="SVGID_4_" class="cls-1" d="M38.35517,109.28424C-135.54094,361.22917,77.56,566.15239,163.06491,582.628" transform="translate(28.0111 11.09614)"/></g><g id="Text"><path d="M444.46777,4.90367l1.69531.78174-5.585,12.10889-1.69434-.78174,2.57813-5.59131L435.53906,8.6898,432.96,14.28111l-1.69434-.78174,5.584-12.10889,1.69434.78174L436.21582,7.222l5.92285,2.73145Z" transform="translate(28.0111 11.09614)"/><path d="M450.86328,11.47936a5.1992,5.1992,0,0,1,1.49609,1.07129,2.84408,2.84408,0,0,1,.7334,2.61572,5.8416,5.8416,0,0,1-.52832,1.46875l-2.82812,5.57764c-.14844-.04687-.35645-.1123-.62207-.19727q-.3999-.12671-.88965-.31055-.48926-.18311-1.05176-.41455t-1.09375-.501a6.59576,6.59576,0,0,1-1.3125-.85889,3.50148,3.50148,0,0,1-.85059-1.0459,2.521,2.521,0,0,1-.27246-1.24951,3.471,3.471,0,0,1,.41309-1.45215,2.84532,2.84532,0,0,1,.94434-1.11768,2.67828,2.67828,0,0,1,1.25-.44482,4.24288,4.24288,0,0,1,1.44434.12842,7.374,7.374,0,0,1,1.52051.57666q.24023.12158.48438.27783.24463.15674.4541.31689.21094.1604.36426.28174c.10254.08105.17383.13867.21484.17334l.22559-.44629a3.99942,3.99942,0,0,0,.31055-.82471,2.00762,2.00762,0,0,0,.03906-.84277,1.75456,1.75456,0,0,0-.36621-.78955,2.6689,2.6689,0,0,0-.91211-.689,8.40958,8.40958,0,0,0-1.43848-.58887,5.46219,5.46219,0,0,0-1.001-.2168l.48145-1.417a5.5439,5.5439,0,0,1,1.16406.25586A9.99444,9.99444,0,0,1,450.86328,11.47936Zm-3.917,8.06738c.377.19141.7168.35254,1.0166.4834a5.00125,5.00125,0,0,0,.77734.27539l1.34863-2.66016a2.26773,2.26773,0,0,0-.4834-.42871,6.97821,6.97821,0,0,0-.90527-.53418,6.753,6.753,0,0,0-.79-.33594,2.63451,2.63451,0,0,0-.84668-.15967,1.76931,1.76931,0,0,0-.7832.16357,1.30988,1.30988,0,0,0-.60156.6333,1.43288,1.43288,0,0,0-.05566,1.47119A3.20243,3.20243,0,0,0,446.94629,19.54674Z" transform="translate(28.0111 11.09614)"/><path d="M460.31055,16.49645q.20215.10986.45117.27734c.166.11182.3252.22754.47949.34717.1543.12012.293.23242.41895.33691a3.26677,3.26677,0,0,1,.27246.24561l-1.01367,1.22363a5.9975,5.9975,0,0,0-.53027-.49512,6.16518,6.16518,0,0,0-1.05762-.69385,4.6883,4.6883,0,0,0-.92187-.37891q-.48193-.14062-.63574-.18018l-4.00586,7.39258-1.57324-.85254,4.56543-8.4248a12.18172,12.18172,0,0,1,1.59375.37109A10.158,10.158,0,0,1,460.31055,16.49645Z" transform="translate(28.0111 11.09614)"/><path d="M471.57031,17.8275l1.70215.63232L465.9209,31.12291q-.62109-.15967-1.53906-.49268a12.56564,12.56564,0,0,1-2-.96143,5.60667,5.60667,0,0,1-1.61426-1.35937,4.44673,4.44673,0,0,1-.84277-1.69092,4.595,4.595,0,0,1-.04687-1.92969,6.30051,6.30051,0,0,1,.78809-2.06738,7.11377,7.11377,0,0,1,1.32129-1.68066,4.73524,4.73524,0,0,1,1.58789-.9917,3.98089,3.98089,0,0,1,1.76367-.22168,4.54459,4.54459,0,0,1,1.84961.62842,4.63567,4.63567,0,0,1,1.20605.96777,4.7991,4.7991,0,0,1,.63477.88037Zm-3.38086,5.82422a3.69237,3.69237,0,0,0-.55469-.92285,3.55755,3.55755,0,0,0-1.03906-.89258,2.88279,2.88279,0,0,0-1.28027-.42041,2.42355,2.42355,0,0,0-1.16016.21631,3.25715,3.25715,0,0,0-1.01758.75537,6.4639,6.4639,0,0,0-.85742,1.1709,3.87767,3.87767,0,0,0-.6084,2.77246,2.96993,2.96993,0,0,0,1.51855,1.9834,9.18769,9.18769,0,0,0,1.09082.55518,5.72338,5.72338,0,0,0,.72949.25684Z" transform="translate(28.0111 11.09614)"/><path d="M475.2002,37.26158q.29-1.45825.73535-3.28467.44531-1.82666,1.05664-3.71875-1.45605,1.35425-2.915,2.53516-1.459,1.18066-2.6582,2.05957l-1.31445-.8374q.31787-2.14673.96875-4.74414.65039-2.59717,1.59863-5.48291l1.623,1.03369q-.32373.86572-.665,1.90332-.34131,1.03711-.6582,2.09033-.31641,1.05249-.56836,2.05615-.25049,1.00342-.40039,1.7749.76172-.58667,1.57227-1.26855.81006-.68115,1.60742-1.39453.79541-.71265,1.54785-1.40967.75146-.6958,1.37891-1.32275l1.249.7959q-.31934.82324-.64062,1.79346-.3208.97046-.63086,1.99316-.30908,1.02393-.584,2.04639-.27539,1.02246-.48535,1.96094.63721-.46143,1.43164-1.11865.79541-.65771,1.623-1.38477.82764-.72656,1.624-1.4751.79541-.7478,1.44336-1.40723l1.55859.99268q-2.21484,2.07935-4.293,3.76709-2.07861,1.6875-3.88965,2.88379Z" transform="translate(28.0111 11.09614)"/><path d="M489.25781,34.33971a5.1969,5.1969,0,0,1,1.33594,1.26514A2.94619,2.94619,0,0,1,491.124,36.933a2.9823,2.9823,0,0,1-.16016,1.36377,5.89956,5.89956,0,0,1-.72461,1.38232l-3.56348,5.13916c-.14062-.06641-.33789-.16016-.58984-.28027s-.53125-.26318-.83789-.42871q-.46-.249-.98535-.55469-.52588-.30542-1.01562-.64551a6.60112,6.60112,0,0,1-1.18262-1.03027,3.477,3.477,0,0,1-.69922-1.15234,2.50136,2.50136,0,0,1-.09961-1.2749,3.46876,3.46876,0,0,1,.60645-1.38184,2.85667,2.85667,0,0,1,1.08789-.97852,2.69162,2.69162,0,0,1,1.2998-.27,4.25743,4.25743,0,0,1,1.41406.32471,7.354,7.354,0,0,1,1.42676.77881q.22119.15308.44238.3418.21973.1875.40625.37549.186.1875.32227.32861c.09082.09424.15332.16162.18848.20117l.28516-.41113a4.06472,4.06472,0,0,0,.41992-.77441,2.01513,2.01513,0,0,0,.1543-.82959,1.76338,1.76338,0,0,0-.25488-.832,2.67849,2.67849,0,0,0-.80957-.80762,8.5349,8.5349,0,0,0-1.34473-.77979,5.50593,5.50593,0,0,0-.96191-.35107l.66992-1.33789a5.49851,5.49851,0,0,1,1.11914.4126A9.939,9.939,0,0,1,489.25781,34.33971Zm-4.98242,7.45654q.52295.36182.94238.61768a4.91567,4.91567,0,0,0,.73145.37891l1.7002-2.45117a2.34528,2.34528,0,0,0-.4209-.49072,6.96891,6.96891,0,0,0-.82422-.65283,6.74578,6.74578,0,0,0-.73633-.44043,2.64074,2.64074,0,0,0-.81641-.27344,1.76643,1.76643,0,0,0-.79883.05469,1.314,1.314,0,0,0-.68262.54541,1.4341,1.4341,0,0,0-.25586,1.44971A3.203,3.203,0,0,0,484.27539,41.79625Z" transform="translate(28.0111 11.09614)"/><path d="M497.93555,40.60094c.124.09131.25977.20313.40918.33643q.22266.2.42773.40967.20361.20947.36914.39063a3.22849,3.22849,0,0,1,.23535.28027L498.207,43.09215a6.13174,6.13174,0,0,0-.458-.563,6.214,6.214,0,0,0-.95312-.83154,4.77107,4.77107,0,0,0-.86133-.50146q-.4585-.20508-.60547-.26514l-4.97754,6.77734-1.44238-1.05957,5.67285-7.72314a12.15987,12.15987,0,0,1,1.52832.58545A10.12264,10.12264,0,0,1,497.93555,40.60094Z" transform="translate(28.0111 11.09614)"/><path d="M497.43457,46.73229a6.384,6.384,0,0,1,1.72852-1.59277,4.85077,4.85077,0,0,1,1.81543-.6709,4.14018,4.14018,0,0,1,1.75684.12451,4.58812,4.58812,0,0,1,1.53711.78223,3.8534,3.8534,0,0,1,1.66895,2.89844,5.80359,5.80359,0,0,1-1.50879,3.69043c-.04785.06055-.1084.13916-.18359.23535a2.70681,2.70681,0,0,1-.22266.25342L498.623,48.24352a3.65951,3.65951,0,0,0-.74121,2.42285,3.31264,3.31264,0,0,0,1.44629,2.15088,6.57159,6.57159,0,0,0,1.35254.84668,5.72406,5.72406,0,0,0,.96191.34668L500.918,55.3485A5.31967,5.31967,0,0,1,499.79,54.933a8.12249,8.12249,0,0,1-1.583-.98926,5.87921,5.87921,0,0,1-1.541-1.70068,4.2086,4.2086,0,0,1-.56934-1.82129,4.4341,4.4341,0,0,1,.29-1.85937A6.96909,6.96909,0,0,1,497.43457,46.73229Zm6.02148,3.44727a3.00235,3.00235,0,0,0,.74609-1.94336,2.08648,2.08648,0,0,0-.87988-1.67334,2.36011,2.36011,0,0,0-1.00488-.47852,2.57047,2.57047,0,0,0-1.01465.00293,2.87488,2.87488,0,0,0-.94629.38477,4.36941,4.36941,0,0,0-.81641.65674Z" transform="translate(28.0111 11.09614)"/><path d="M22.48389,143.57018a7.73141,7.73141,0,0,1,2.38574,1.915A5.57654,5.57654,0,0,1,26,147.83287a6.446,6.446,0,0,1-.02637,2.66016,10.3167,10.3167,0,0,1-1.07373,2.833q-.38672.70972-.91113,1.53027a10.50918,10.50918,0,0,1-1.07129,1.42139l-11.35205-6.19092a10.55865,10.55865,0,0,1,.61523-1.66992q.40576-.8855.793-1.59473a10.32484,10.32484,0,0,1,1.80029-2.4375,6.44341,6.44341,0,0,1,2.22217-1.46191,5.57743,5.57743,0,0,1,2.58594-.32129A7.72714,7.72714,0,0,1,22.48389,143.57018Zm1.05371,8.83789a4.67233,4.67233,0,0,0-2.00293-7.09766,5.2469,5.2469,0,0,0-3.96289-.6709,5.27145,5.27145,0,0,0-3.08838,2.83057q-.37793.69287-.56836,1.08154-.19043.38965-.25635.55078l8.95313,4.88281c.06641-.09521.1748-.2666.32373-.51367Q23.1604,153.10021,23.5376,152.40807Z" transform="translate(28.0111 11.09614)"/><path d="M19.90918,137.85143a1.148,1.148,0,0,1-.68652.54639,1.25781,1.25781,0,0,1-1.479-.86328,1.21269,1.21269,0,0,1,.82422-1.4126,1.25714,1.25714,0,0,1,1.479.86328A1.149,1.149,0,0,1,19.90918,137.85143Zm10.65869,5.17529-.90234,1.54541L21.0249,139.5277l.90186-1.54541Z" transform="translate(28.0111 11.09614)"/><path d="M27.55762,138.27623a6.37888,6.37888,0,0,1-1.771-1.54541,4.84575,4.84575,0,0,1-.86426-1.73193,4.14041,4.14041,0,0,1-.06738-1.75977,4.568,4.568,0,0,1,.61084-1.61279,3.852,3.852,0,0,1,2.69971-1.97412,5.79914,5.79914,0,0,1,3.83252,1.09863c.06543.04053.15039.09277.25391.15674a2.81984,2.81984,0,0,1,.27637.19336L28.93066,136.93a3.66251,3.66251,0,0,0,2.48926.47363,3.3103,3.3103,0,0,0,1.981-1.67139,6.58381,6.58381,0,0,0,.69482-1.437,5.68261,5.68261,0,0,0,.23975-.99365l1.40869.5752a5.29809,5.29809,0,0,1-.29,1.1665,8.14281,8.14281,0,0,1-.81152,1.68115,5.88639,5.88639,0,0,1-1.52295,1.7168,4.21821,4.21821,0,0,1-1.74854.76367,4.43082,4.43082,0,0,1-1.88037-.08643A6.95315,6.95315,0,0,1,27.55762,138.27623Zm2.77246-6.36133a3.00636,3.00636,0,0,0-2.01318-.53027,2.08615,2.08615,0,0,0-1.56738,1.05664,2.35221,2.35221,0,0,0-.36621,1.05127,2.55357,2.55357,0,0,0,.11279,1.00781,2.869,2.869,0,0,0,.48535.89893,4.32487,4.32487,0,0,0,.7417.74023Z" transform="translate(28.0111 11.09614)"/><path d="M29.62842,126.00963q.2124-.59766.6333-1.543a14.13038,14.13038,0,0,1,1.15576-2.05029,5.07872,5.07872,0,0,1,1.37793-1.46387,3.10924,3.10924,0,0,1,1.4834-.52686,3.64,3.64,0,0,1,1.57715.252,8.44192,8.44192,0,0,1,1.66064.87354l4.67822,3.11182-.99121,1.48975-4.35791-2.89893a8.57913,8.57913,0,0,0-1.38281-.76953,2.67524,2.67524,0,0,0-1.11035-.2417,1.6429,1.6429,0,0,0-.915.31592,3.38772,3.38772,0,0,0-.8125.89209q-.1604.24023-.31445.50732-.15454.26733-.28516.51514-.13037.24829-.22119.4541-.09009.20581-.12744.2959l7.0332,4.67871-.99121,1.48975Z" transform="translate(28.0111 11.09614)"/><path d="M44.13965,119.659a3.52271,3.52271,0,0,0,.70605-1.49268.97592.97592,0,0,0-.44629-.96631,1.22665,1.22665,0,0,0-1.14795-.17822,8.25249,8.25249,0,0,0-1.69775.89453q-.52222.33691-1.0249.62891a3.86068,3.86068,0,0,1-.99219.4165,2.47744,2.47744,0,0,1-1,.04492,2.51972,2.51972,0,0,1-1.05908-.46924,2.54873,2.54873,0,0,1-1.14941-2.02,4.18846,4.18846,0,0,1,.91357-2.63184,7.54353,7.54353,0,0,1,.52979-.66211q.28418-.31714.55078-.57666.2666-.25854.49121-.44189.22412-.18237.36035-.2749l1.06543,1.1582a4.54877,4.54877,0,0,0-.78223.55371,5.83369,5.83369,0,0,0-.9917,1.11279,2.74254,2.74254,0,0,0-.51465,1.23975.98832.98832,0,0,0,.438.99512,1.2693,1.2693,0,0,0,.543.23242,1.33113,1.33113,0,0,0,.59131-.05176,3.17057,3.17057,0,0,0,.6792-.30859q.364-.21313.833-.541.63208-.42407,1.167-.729a3.98172,3.98172,0,0,1,1.04541-.42529,2.32923,2.32923,0,0,1,1.03369-.00928,3.03575,3.03575,0,0,1,1.103.52393,2.38523,2.38523,0,0,1,1.11328,2.05371,5.12425,5.12425,0,0,1-1.11865,2.80469,7.6856,7.6856,0,0,1-1.38428,1.56592q-.6145.4834-.86475.63623l-1.06543-1.1582q.27173-.18384.85059-.59961A5.66181,5.66181,0,0,0,44.13965,119.659Z" transform="translate(28.0111 11.09614)"/><path d="M41.78271,108.07848l2.27295-3.03369,1.20117.90039-2.27295,3.0332,3.6958,2.769a5.51726,5.51726,0,0,0,1.0625.65186,1.85985,1.85985,0,0,0,.82324.18457,1.24761,1.24761,0,0,0,.66211-.22559,2.561,2.561,0,0,0,.57666-.57764,3.79741,3.79741,0,0,0,.63281-1.14893q.14795-.50244.20166-.70264l1.39355.61133a6.71224,6.71224,0,0,1-.2959.95654,5.36049,5.36049,0,0,1-.76172,1.353,4.66728,4.66728,0,0,1-1.21729,1.19189,2.45341,2.45341,0,0,1-1.26416.38721,3.12,3.12,0,0,1-1.36426-.313,8.4243,8.4243,0,0,1-1.50684-.9248l-7.145-5.35352.82666-1.6167Z" transform="translate(28.0111 11.09614)"/><path d="M49.02393,106.79723a6.38833,6.38833,0,0,1-1.57617-1.74316,4.84046,4.84046,0,0,1-.65381-1.82178,4.1435,4.1435,0,0,1,.14111-1.75586,4.574,4.574,0,0,1,.79688-1.5293,3.85186,3.85186,0,0,1,2.91357-1.6416,5.79463,5.79463,0,0,1,3.67627,1.54395c.06006.04785.13818.10938.2334.18506a2.82138,2.82138,0,0,1,.252.22461l-4.26074,5.36377a3.663,3.663,0,0,0,2.41553.76416,3.31158,3.31158,0,0,0,2.165-1.42627,6.56144,6.56144,0,0,0,.85938-1.34473,5.704,5.704,0,0,0,.35547-.958l1.33105.7373a5.31361,5.31361,0,0,1-.42578,1.124,8.1755,8.1755,0,0,1-1.00439,1.57373,5.88325,5.88325,0,0,1-1.71533,1.5249,4.211,4.211,0,0,1-1.82666.55176,4.427,4.427,0,0,1-1.85645-.30762A6.9447,6.9447,0,0,1,49.02393,106.79723Zm3.50391-5.98926a3.00546,3.00546,0,0,0-1.936-.76416,2.08855,2.08855,0,0,0-1.68164.86377,2.36094,2.36094,0,0,0-.48779,1.001,2.562,2.562,0,0,0-.00684,1.01416,2.877,2.877,0,0,0,.376.9502,4.34643,4.34643,0,0,0,.64893.82227Z" transform="translate(28.0111 11.09614)"/><path d="M52.541,94.84508q.282-.56836.811-1.45752a14.1524,14.1524,0,0,1,1.39014-1.8999,5.08115,5.08115,0,0,1,1.541-1.291,3.10662,3.10662,0,0,1,1.53467-.34814,3.64409,3.64409,0,0,1,1.53662.436,8.42441,8.42441,0,0,1,1.5459,1.06348l4.27832,3.64209L64.019,96.3524l-3.98535-3.39258a8.54529,8.54529,0,0,0-1.28271-.92725,2.66421,2.66421,0,0,0-1.07373-.37109,1.63642,1.63642,0,0,0-.9458.20557,3.38707,3.38707,0,0,0-.9126.79c-.125.14648-.24854.30225-.37207.4668q-.18457.24683-.34375.478c-.106.15381-.19678.2959-.27295.42432-.07617.12939-.12988.22217-.16211.2793l6.43213,5.47559-1.15967,1.3623Z" transform="translate(28.0111 11.09614)"/><path d="M65.99463,86.58775a6.38673,6.38673,0,0,1-1.42871-1.86621A4.84161,4.84161,0,0,1,64.063,82.8524a4.13672,4.13672,0,0,1,.28418-1.73779,4.56742,4.56742,0,0,1,.91895-1.45947A3.85249,3.85249,0,0,1,68.3042,78.2567a5.79824,5.79824,0,0,1,3.5376,1.83887q.08423.0791.21777.20361a2.71933,2.71933,0,0,1,.23242.24463l-4.68408,4.998a3.6614,3.6614,0,0,0,2.34521.9585,3.30951,3.30951,0,0,0,2.27393-1.24463,6.56519,6.56519,0,0,0,.96631-1.27,5.66864,5.66864,0,0,0,.43262-.92627l1.26611.84424a5.31988,5.31988,0,0,1-.51611,1.085,8.128,8.128,0,0,1-1.12939,1.48682,5.8933,5.8933,0,0,1-1.8335,1.37988,4.21754,4.21754,0,0,1-1.86572.40088,4.42582,4.42582,0,0,1-1.8252-.4585A6.925,6.925,0,0,1,65.99463,86.58775Zm3.98145-5.68311a3.00356,3.00356,0,0,0-1.86768-.91943,2.08582,2.08582,0,0,0-1.74609.72363,2.358,2.358,0,0,0-.56787.95752,2.56,2.56,0,0,0-.08984,1.01025,2.88371,2.88371,0,0,0,.29688.97754,4.36547,4.36547,0,0,0,.57959.87256Z" transform="translate(28.0111 11.09614)"/><path d="M70.46924,74.96959q.32739-.54346.92725-1.38623a14.15639,14.15639,0,0,1,1.54-1.78027,5.08411,5.08411,0,0,1,1.64111-1.16064,3.10287,3.10287,0,0,1,1.55811-.22217,3.651,3.651,0,0,1,1.49609.56006,8.45293,8.45293,0,0,1,1.4541,1.186l3.9668,3.97852-1.26709,1.26367L78.09033,73.702A8.51939,8.51939,0,0,0,76.8877,72.6732a2.67873,2.67873,0,0,0-1.04-.45752,1.64258,1.64258,0,0,0-.95947.12793,3.39138,3.39138,0,0,0-.97412.71289c-.13623.13574-.27246.28125-.40869.43457q-.20435.23145-.38135.44873-.178.21753-.30713.40088-.12891.18384-.18408.26514l5.96436,5.98193-1.26709,1.26318Z" transform="translate(28.0111 11.09614)"/><path d="M91.50537,61.54137a7.06258,7.06258,0,0,1,1.186,1.75586,4.74665,4.74665,0,0,1,.46045,1.81445,3.97765,3.97765,0,0,1-.32617,1.74756,4.53739,4.53739,0,0,1-1.16162,1.56982,4.65871,4.65871,0,0,1-1.28955.855,4.82111,4.82111,0,0,1-1.03174.33643l2.68457,2.96826-1.32715,1.2002-8.89258-9.83252q.36768-.53979.95117-1.31445A11.8305,11.8305,0,0,1,84.27,61.02867a5.61328,5.61328,0,0,1,1.78662-1.123,4.45672,4.45672,0,0,1,1.86719-.2876,4.59871,4.59871,0,0,1,1.85254.54248A6.31442,6.31442,0,0,1,91.50537,61.54137Zm-1.38428,1.252a3.84129,3.84129,0,0,0-2.44873-1.417,2.98494,2.98494,0,0,0-2.34521.84961,10.61808,10.61808,0,0,0-.896.88818,5.15638,5.15638,0,0,0-.44482.584l4.2334,4.68066a3.66161,3.66161,0,0,0,1.04785-.24707,3.54712,3.54712,0,0,0,1.167-.71777,2.87413,2.87413,0,0,0,.79-1.09131,2.4157,2.4157,0,0,0,.14746-1.1709,3.25662,3.25662,0,0,0-.40332-1.19189A6.3493,6.3493,0,0,0,90.12109,62.79332Z" transform="translate(28.0111 11.09614)"/><path d="M92.87646,53.49352q.175-.14941.4209-.32129.24609-.17139.49658-.32227.25122-.15088.46533-.27a3.181,3.181,0,0,1,.32715-.165l.77686,1.38574a5.98612,5.98612,0,0,0-.65283.31641,6.13825,6.13825,0,0,0-1.02783.7373,4.69375,4.69375,0,0,0-.68555.72363q-.30469.39844-.39648.52783l5.45557,6.39795L96.69482,63.6649l-6.21777-7.291a12.09671,12.09671,0,0,1,.91992-1.353A10.1187,10.1187,0,0,1,92.87646,53.49352Z" transform="translate(28.0111 11.09614)"/><path d="M106.03027,49.49059a6.32385,6.32385,0,0,1,1.08008,1.897,4.93026,4.93026,0,0,1,.27881,1.89844,4.27164,4.27164,0,0,1-.49365,1.7666,4.92559,4.92559,0,0,1-2.93994,2.3623,4.27013,4.27013,0,0,1-1.83105.10156,4.91839,4.91839,0,0,1-1.79395-.68164,6.8453,6.8453,0,0,1-2.69385-3.35205,4.91672,4.91672,0,0,1-.28516-1.90625,4.27164,4.27164,0,0,1,.49365-1.7666,4.92559,4.92559,0,0,1,2.93994-2.3623,4.27962,4.27962,0,0,1,1.83154-.10156,4.91663,4.91663,0,0,1,1.7998.689A6.34471,6.34471,0,0,1,106.03027,49.49059Zm-1.45508,1.16895a4.3038,4.3038,0,0,0-2.27344-1.61621,2.65407,2.65407,0,0,0-3.2251,2.59131,5.11945,5.11945,0,0,0,3.36279,4.18457,2.65393,2.65393,0,0,0,3.22461-2.59082A4.302,4.302,0,0,0,104.5752,50.65953Z" transform="translate(28.0111 11.09614)"/><path d="M107.52344,36.32262l1.24951-1.31738,8.76172,11.73242q-.39038.50684-1.05713,1.22119a12.55838,12.55838,0,0,1-1.66943,1.46289,5.61205,5.61205,0,0,1-1.88379.95068,4.44309,4.44309,0,0,1-1.88574.11133,4.58937,4.58937,0,0,1-1.79395-.71338,6.31483,6.31483,0,0,1-1.5918-1.53711,7.13,7.13,0,0,1-1.02783-1.874,4.75837,4.75837,0,0,1-.28857-1.8501,3.9847,3.9847,0,0,1,.48877-1.70947,4.52932,4.52932,0,0,1,1.30371-1.45361,4.64329,4.64329,0,0,1,1.36377-.73047,4.82866,4.82866,0,0,1,1.05859-.23828Zm4.0293,5.396a3.67873,3.67873,0,0,0-1.06592.14795,3.54593,3.54593,0,0,0-1.229.60547,2.87918,2.87918,0,0,0-.88916,1.01221,2.418,2.418,0,0,0-.25635,1.15186,3.24783,3.24783,0,0,0,.2959,1.23193,6.457,6.457,0,0,0,.73975,1.24854,3.87783,3.87783,0,0,0,2.31152,1.64795,2.96792,2.96792,0,0,0,2.41992-.61816,9.25187,9.25187,0,0,0,.939-.78516,5.88744,5.88744,0,0,0,.52246-.57031Z" transform="translate(28.0111 11.09614)"/><path d="M126.481,40.47057q-.41821.47754-1.14941,1.1958a13.97346,13.97346,0,0,1-1.82178,1.47461,4.96378,4.96378,0,0,1-1.78906.83154,3.12847,3.12847,0,0,1-1.58594-.05859,3.86723,3.86723,0,0,1-1.39746-.79883,7.57383,7.57383,0,0,1-1.23242-1.40479l-3.20312-4.61621,1.47021-1.02,2.98389,4.2998a4.5352,4.5352,0,0,0,1.96582,1.8208,2.24819,2.24819,0,0,0,2.04639-.45947c.1582-.10986.31787-.228.479-.356q.24243-.19116.44727-.36865.20435-.17725.37012-.32715a1.42452,1.42452,0,0,0,.22217-.23633l-4.81543-6.93994,1.47021-1.02Z" transform="translate(28.0111 11.09614)"/><path d="M132.91406,36.8817a5.45145,5.45145,0,0,1-1.99365.834,4.26842,4.26842,0,0,1-1.87744-.06689,4.45787,4.45787,0,0,1-1.67822-.87256,6.80985,6.80985,0,0,1-1.40479-1.6001,6.3592,6.3592,0,0,1-.86914-1.959,4.99267,4.99267,0,0,1-.10645-1.91455,4.26557,4.26557,0,0,1,.67041-1.74219,4.88705,4.88705,0,0,1,1.45654-1.41455,7.98541,7.98541,0,0,1,1.19287-.63623,6.25719,6.25719,0,0,1,1.28027-.39453l.48828,1.49512a4.33505,4.33505,0,0,0-.95068.24951,5.27494,5.27494,0,0,0-1.00732.51563,2.846,2.846,0,0,0-1.416,2.04248,4.15494,4.15494,0,0,0,.82715,2.74268,5.64072,5.64072,0,0,0,.95947,1.144,3.05526,3.05526,0,0,0,1.1123.6543,2.57488,2.57488,0,0,0,1.251.07178A3.84963,3.84963,0,0,0,132.249,35.432a5.65179,5.65179,0,0,0,1.0083-.81445,4.72,4.72,0,0,0,.60205-.73389l1.02637,1.123a1.88713,1.88713,0,0,1-.272.394,6.13587,6.13587,0,0,1-.46484.48486q-.271.25562-.59131.521A6.9873,6.9873,0,0,1,132.91406,36.8817Z" transform="translate(28.0111 11.09614)"/><path d="M132.80225,24.86559l3.2334-1.979.7832,1.28027-3.23291,1.97852,2.41064,3.939a5.57412,5.57412,0,0,0,.74658.99854,1.86128,1.86128,0,0,0,.69727.47559,1.24916,1.24916,0,0,0,.69824.03516,2.56832,2.56832,0,0,0,.74951-.32373,3.79627,3.79627,0,0,0,1.01221-.834q.323-.41162.44727-.57812l1.06885,1.083a6.65771,6.65771,0,0,1-.62842.7793,5.36215,5.36215,0,0,1-1.20752.97607,4.66672,4.66672,0,0,1-1.57178.65723,2.44937,2.44937,0,0,1-1.31738-.10693,3.11856,3.11856,0,0,1-1.15234-.79541,8.42587,8.42587,0,0,1-1.05859-1.416l-4.66064-7.61523,1.36523-1.19629Z" transform="translate(28.0111 11.09614)"/><path d="M139.98779,26.35973a6.37665,6.37665,0,0,1-.81982-2.20264,4.84317,4.84317,0,0,1,.06543-1.93408,4.14492,4.14492,0,0,1,.78027-1.5791,4.56812,4.56812,0,0,1,1.30566-1.12646,3.85226,3.85226,0,0,1,3.31445-.44873,5.7968,5.7968,0,0,1,2.84473,2.793q.05786.10034.14844.25879a2.8087,2.8087,0,0,1,.15137.30176l-5.94141,3.40918a3.65944,3.65944,0,0,0,1.96191,1.60254,3.31125,3.31125,0,0,0,2.53857-.52441,6.56734,6.56734,0,0,0,1.29541-.93213,5.70964,5.70964,0,0,0,.68506-.75879l.96387,1.17725a5.33811,5.33811,0,0,1-.811.88672,8.16085,8.16085,0,0,1-1.51465,1.09082,5.88473,5.88473,0,0,1-2.15771.7832,4.20955,4.20955,0,0,1-1.90088-.1626,4.42536,4.42536,0,0,1-1.61182-.97168A6.95134,6.95134,0,0,1,139.98779,26.35973Zm5.46973-4.27a3.00245,3.00245,0,0,0-1.5166-1.42529,2.0864,2.0864,0,0,0-1.88184.18115,2.35984,2.35984,0,0,0-.82324.74951,2.56679,2.56679,0,0,0-.38135.93994,2.871,2.871,0,0,0-.00146,1.02148,4.33905,4.33905,0,0,0,.29883,1.00391Z" transform="translate(28.0111 11.09614)"/><path d="M147.68945,16.54723q.47241-.42407,1.293-1.0542a14.13883,14.13883,0,0,1,1.99365-1.251,5.07455,5.07455,0,0,1,1.90918-.62939,3.10631,3.10631,0,0,1,1.55518.24414,3.64362,3.64362,0,0,1,1.26611.97363,8.43179,8.43179,0,0,1,1.043,1.55957l2.62793,4.96631-1.582.83691-2.44775-4.626a8.54364,8.54364,0,0,0-.84814-1.33643,2.6723,2.6723,0,0,0-.86084-.7417,1.6399,1.6399,0,0,0-.95459-.15869,3.37956,3.37956,0,0,0-1.14014.39648q-.25488.13477-.51807.2959-.26367.16113-.49658.31689-.23291.156-.41064.29346-.17725.1377-.25342.19971l3.95068,7.46631-1.58154.83691Z" transform="translate(28.0111 11.09614)"/><path d="M555.47363,517.82164q1.98486-2.3291.39258-3.68555a2.08753,2.08753,0,0,0-1.00977-.50391,2.64452,2.64452,0,0,0-1.07422.05078,5.11,5.11,0,0,0-1.12109.43359q-.56836.2959-1.18359.64453a12.7392,12.7392,0,0,1-1.3916.71875,5.05124,5.05124,0,0,1-1.36719.39551,3.318,3.318,0,0,1-1.334-.0918,3.53,3.53,0,0,1-1.33691-.75586,3.49237,3.49237,0,0,1-1.36426-2.80176,5.27468,5.27468,0,0,1,1.45215-3.28516,9.109,9.109,0,0,1,1.70215-1.5791,5.26239,5.26239,0,0,1,1.43652-.77148l.80469,1.50488a5.48724,5.48724,0,0,0-1.20605.625,6.75765,6.75765,0,0,0-1.45117,1.31543,4.2797,4.2797,0,0,0-.58691.876,2.66387,2.66387,0,0,0-.27344.87793,1.78655,1.78655,0,0,0,.09473.834,1.74486,1.74486,0,0,0,.52832.72852,1.86114,1.86114,0,0,0,.86328.44434,2.19136,2.19136,0,0,0,.917-.03809,5.354,5.354,0,0,0,1.0127-.36719q.53027-.25049,1.13184-.584.86279-.4541,1.62793-.79492a5.4347,5.4347,0,0,1,1.50586-.43555,3.47015,3.47015,0,0,1,1.46582.125,4.19442,4.19442,0,0,1,1.47363.8584,3.28374,3.28374,0,0,1,1.27441,2.84473,6.2693,6.2693,0,0,1-1.69824,3.51172,9.74143,9.74143,0,0,1-1.06934,1.08594,11.37011,11.37011,0,0,1-1.002.77246,7.05833,7.05833,0,0,1-.85254.50391q-.38379.189-.62012.27832l-.8457-1.4873a8.83628,8.83628,0,0,0,1.3584-.69434A7.25264,7.25264,0,0,0,555.47363,517.82164Z" transform="translate(28.0111 11.09614)"/><path d="M563.10449,502.36949a6.60714,6.60714,0,0,1,1.53906,1.68262,5.1663,5.1663,0,0,1,.72266,1.87109,4.49147,4.49147,0,0,1-.0957,1.916,5.16542,5.16542,0,0,1-2.45312,3.09082,4.46091,4.46091,0,0,1-1.84375.5293,5.14022,5.14022,0,0,1-1.98633-.27832,7.13383,7.13383,0,0,1-3.51953-2.793,5.12036,5.12036,0,0,1-.73047-1.877,4.46071,4.46071,0,0,1,.0957-1.916,5.15924,5.15924,0,0,1,2.45215-3.09082,4.47567,4.47567,0,0,1,1.84375-.5293,5.1425,5.1425,0,0,1,1.99414.28516A6.61389,6.61389,0,0,1,563.10449,502.36949Zm-1.21387,1.5293a4.49725,4.49725,0,0,0-2.69141-1.12012,2.77957,2.77957,0,0,0-2.69043,3.39063,5.34383,5.34383,0,0,0,4.39453,3.48633,2.77957,2.77957,0,0,0,2.69043-3.39062A4.49687,4.49687,0,0,0,561.89063,503.89879Z" transform="translate(28.0111 11.09614)"/><path d="M558.86816,490.69469a7.21076,7.21076,0,0,1,.94531-1.06641,5.13875,5.13875,0,0,1,.67578-.53711l1.08594,1.23535a3.465,3.465,0,0,0-.59473.41016,4.62315,4.62315,0,0,0-.73828.80566,2.1299,2.1299,0,0,0-.52148,1.89551,3.178,3.178,0,0,0,1.22656,1.56738l.72559.54,2.40527-3.22852,1.25781.93652-2.40527,3.22949,7.126,5.30859-1.11914,1.501-9.14062-6.80957a4.48731,4.48731,0,0,1-1.90234-2.64746A3.977,3.977,0,0,1,558.86816,490.69469Z" transform="translate(28.0111 11.09614)"/><path d="M566.15039,489.4027l2.291-3.2373,1.28027.90625-2.291,3.2373,3.93945,2.78711a5.81794,5.81794,0,0,0,1.12793.65039,1.95229,1.95229,0,0,0,.86621.168,1.29246,1.29246,0,0,0,.68457-.25488,2.66692,2.66692,0,0,0,.58691-.62012,3.97116,3.97116,0,0,0,.62891-1.21973c.09375-.35254.1582-.59961.19141-.74023l1.47266.59863a6.86435,6.86435,0,0,1-.28223,1.00781,5.60059,5.60059,0,0,1-.75781,1.43652,4.88816,4.88816,0,0,1-1.23926,1.28125,2.56,2.56,0,0,1-1.30957.44238,3.26381,3.26381,0,0,1-1.43457-.28711,8.84217,8.84217,0,0,1-1.60059-.92285l-7.61523-5.38867.81934-1.71387Z" transform="translate(28.0111 11.09614)"/><path d="M583.21875,482.8402q-1.52051-.31934-3.42383-.80664-1.90283-.48633-3.87207-1.14844,1.396,1.53809,2.61133,3.07715,1.21436,1.541,2.11816,2.80469l-.89258,1.36426q-2.23975-.35742-4.94531-1.06836-2.707-.71045-5.71094-1.73633l1.10156-1.68555q.90088.3501,1.98145.71777,1.07959.36914,2.17578.71289,1.0957.34424,2.1416.61914,1.0459.27393,1.85059.43945-.60352-.80273-1.30566-1.65918-.70166-.85547-1.43652-1.69727-.73535-.84082-1.45312-1.63477t-1.36523-1.458l.84766-1.29687q.85693.34277,1.86621.69043,1.01074.34863,2.07617.68359,1.06494.33545,2.13086.63477,1.06494.30029,2.043.53027-.47461-.6709-1.15039-1.50977-.67676-.83936-1.42578-1.71387-.75-.87451-1.52148-1.71582-.77051-.84082-1.45215-1.52637l1.05762-1.61719q2.146,2.33936,3.88184,4.5332,1.7373,2.19434,2.96387,4.10156Z" transform="translate(28.0111 11.09614)"/><path d="M579.71777,468.15074a5.45276,5.45276,0,0,1,1.22559-1.48437,2.97641,2.97641,0,0,1,2.78125-.57812,6.13749,6.13749,0,0,1,1.49316.65625l5.60938,3.35059c-.05957.15234-.14258.36426-.251.63574q-.16113.40723-.38867.90527-.22559.49658-.50879,1.06738-.28125.56982-.60156,1.10645a6.92578,6.92578,0,0,1-.99121,1.30664,3.63431,3.63431,0,0,1-1.15234.8125,2.62236,2.62236,0,0,1-1.32324.19531,3.61209,3.61209,0,0,1-1.4834-.53418,2.9747,2.9747,0,0,1-1.09668-1.06543,2.80842,2.80842,0,0,1-.373-1.33594,4.43954,4.43954,0,0,1,.23926-1.499,7.73848,7.73848,0,0,1,.71191-1.54492,5.76568,5.76568,0,0,1,.3252-.48535c.12012-.16309.24121-.3125.36328-.45117.12109-.13867.22852-.25879.32031-.36035q.1377-.15088.19629-.21094l-.44922-.26758a4.18116,4.18116,0,0,0-.83691-.38281,2.0982,2.0982,0,0,0-.876-.10156,1.83636,1.83636,0,0,0-.84961.3252,2.79338,2.79338,0,0,0-.78516.90332,8.8274,8.8274,0,0,0-.71875,1.458,5.77774,5.77774,0,0,0-.29883,1.0293l-1.44238-.60352a5.84254,5.84254,0,0,1,.35156-1.19727A10.50548,10.50548,0,0,1,579.71777,468.15074Zm8.127,4.665q.33984-.57129.57715-1.02637a5.10165,5.10165,0,0,0,.34375-.792l-2.6748-1.59766a2.39822,2.39822,0,0,0-.48242.47461,7.25366,7.25366,0,0,0-.623.90527,7.03509,7.03509,0,0,0-.40723.80078,2.75523,2.75523,0,0,0-.22852.87207,1.85373,1.85373,0,0,0,.11328.8291,1.37356,1.37356,0,0,0,.61719.67383,1.50012,1.50012,0,0,0,1.5293.16309A3.35335,3.35335,0,0,0,587.84473,472.81578Z" transform="translate(28.0111 11.09614)"/><path d="M585.19434,458.7191q.11865-.21094.29688-.46875c.11914-.17187.24316-.33691.37012-.49609q.19189-.24023.3584-.43457a3.23414,3.23414,0,0,1,.26074-.28125l1.26367,1.07617a6.1406,6.1406,0,0,0-1.26562,1.64551,4.86125,4.86125,0,0,0-.40918.959c-.10352.334-.16895.55469-.19824.66211l7.668,4.28809-.91406,1.63477-8.73828-4.8877a12.84068,12.84068,0,0,1,.41113-1.66211A10.66725,10.66725,0,0,1,585.19434,458.7191Z" transform="translate(28.0111 11.09614)"/><path d="M591.63965,458.38609a6.66414,6.66414,0,0,1-1.96289-1.47656,5.0782,5.0782,0,0,1-1.03125-1.74023,4.341,4.341,0,0,1-.20215-1.83105,4.77773,4.77773,0,0,1,.51563-1.72852,4.03643,4.03643,0,0,1,2.665-2.2666,6.0512,6.0512,0,0,1,4.07813.85352c.07129.03711.16406.085.27637.14453a2.91882,2.91882,0,0,1,.30273.17969l-3.31152,6.35645a3.8309,3.8309,0,0,0,2.63086.30371,3.47391,3.47391,0,0,0,1.93945-1.89551,6.86359,6.86359,0,0,0,.61523-1.55176,5.96359,5.96359,0,0,0,.17578-1.05469l1.51172.49219a5.61389,5.61389,0,0,1-.21484,1.23828,8.50405,8.50405,0,0,1-.71973,1.81641,6.14794,6.14794,0,0,1-1.458,1.90723,4.42531,4.42531,0,0,1-1.76562.93066,4.64192,4.64192,0,0,1-1.96582.05371A7.26707,7.26707,0,0,1,591.63965,458.38609Zm2.41113-6.84766a3.13205,3.13205,0,0,0-2.1377-.39941,2.18725,2.18725,0,0,0-1.55469,1.22168,2.46017,2.46017,0,0,0-.30273,1.125,2.66269,2.66269,0,0,0,.19336,1.043,2.99047,2.99047,0,0,0,.57324.90039,4.5395,4.5395,0,0,0,.8291.71582Z" transform="translate(28.0111 11.09614)"/><path d="M60.73389,517.59117a8.05981,8.05981,0,0,1-2.7666,1.60156,5.83721,5.83721,0,0,1-2.71533.21387,6.74549,6.74549,0,0,1-2.584-1.03223,10.78615,10.78615,0,0,1-2.35791-2.11816q-.54639-.646-1.14893-1.46777a11.01892,11.01892,0,0,1-.98242-1.582l10.31592-8.72363a11.07371,11.07371,0,0,1,1.397,1.23145q.70972.731,1.25635,1.376a10.82526,10.82526,0,0,1,1.69775,2.67773,6.749,6.749,0,0,1,.58838,2.71875,5.83,5.83,0,0,1-.66162,2.64258A8.07627,8.07627,0,0,1,60.73389,517.59117Zm-9.01514-2.31543a5.52123,5.52123,0,0,0,3.76025,2.251,5.40893,5.40893,0,0,0,4.46777-9.21q-.5332-.62988-.84082-.96289c-.20508-.22168-.35205-.375-.43994-.458l-8.13623,6.87988q.10181.15234.37891.51074Q51.18555,514.64537,51.71875,515.27574Z" transform="translate(28.0111 11.09614)"/><path d="M67.49365,519.45738a5.44035,5.44035,0,0,1,1.06641,1.60254,3.08992,3.08992,0,0,1,.23242,1.47754A3.12267,3.12267,0,0,1,68.311,523.889a6.10637,6.10637,0,0,1-1.06006,1.23926l-4.82715,4.40332c-.12891-.10059-.30762-.24219-.53662-.42285q-.34351-.27246-.75439-.63379-.41089-.36035-.87549-.7959-.46436-.43506-.88477-.89551a6.89907,6.89907,0,0,1-.96533-1.32617,3.64281,3.64281,0,0,1-.44482-1.33887,2.62418,2.62418,0,0,1,.19482-1.32227,3.62759,3.62759,0,0,1,.94043-1.2666,2.98117,2.98117,0,0,1,1.33643-.74219,2.80393,2.80393,0,0,1,1.38721.0293,4.4372,4.4372,0,0,1,1.36572.66211,7.69064,7.69064,0,0,1,1.27295,1.127c.127.13867.25049.29.37158.45215q.18091.24316.32715.47754.14575.23584.252.41113.10547.17578.14551.249l.38623-.35254a4.22537,4.22537,0,0,0,.60791-.69141,2.09393,2.09393,0,0,0,.34961-.80957,1.83414,1.83414,0,0,0-.06543-.90723,2.81493,2.81493,0,0,0-.6377-1.0127,8.833,8.833,0,0,0-1.189-1.1084,5.64455,5.64455,0,0,0-.89893-.583l.99414-1.207a5.73464,5.73464,0,0,1,1.04443.68262A10.48288,10.48288,0,0,1,67.49365,519.45738ZM60.68018,525.89q.44751.49219.81592.85059a5.19057,5.19057,0,0,0,.6582.55762l2.30273-2.10059a2.42071,2.42071,0,0,0-.31494-.59863,7.35947,7.35947,0,0,0-.6875-.85742,6.95177,6.95177,0,0,0-.64795-.62109,2.771,2.771,0,0,0-.769-.4707,1.85178,1.85178,0,0,0-.82715-.13086,1.37167,1.37167,0,0,0-.82275.39551,1.50057,1.50057,0,0,0-.59814,1.418A3.35219,3.35219,0,0,0,60.68018,525.89Z" transform="translate(28.0111 11.09614)"/><path d="M73.33154,526.0775,76.0874,528.93l-1.12793,1.08984-2.75586-2.85254-3.46973,3.35254a5.756,5.756,0,0,0-.84863.98828,1.94228,1.94228,0,0,0-.32666.81934,1.30483,1.30483,0,0,0,.123.7207,2.69867,2.69867,0,0,0,.501.69238,3.966,3.966,0,0,0,1.08154.84375q.49365.2373.69189.32617l-.86182,1.33594a7.09331,7.09331,0,0,1-.93848-.46484,5.61992,5.61992,0,0,1-1.271-1.01172,4.89383,4.89383,0,0,1-1.02832-1.45508,2.56543,2.56543,0,0,1-.19092-1.37012,3.2497,3.2497,0,0,1,.54883-1.35547,8.77136,8.77136,0,0,1,1.2041-1.40137l6.7085-6.48145,1.53271,1.12207Z" transform="translate(28.0111 11.09614)"/><path d="M80.32324,532.75816A5.44609,5.44609,0,0,1,81.48,534.29625a3.089,3.089,0,0,1,.31641,1.46191,3.12477,3.12477,0,0,1-.40283,1.377,6.10115,6.10115,0,0,1-.9873,1.29785l-4.56689,4.67383q-.20068-.14062-.55957-.39258t-.78955-.58887q-.43066-.33691-.91943-.74414-.48853-.40723-.93506-.84375a6.89673,6.89673,0,0,1-1.04-1.26953,3.64633,3.64633,0,0,1-.521-1.30957,2.631,2.631,0,0,1,.11914-1.332,3.6203,3.6203,0,0,1,.86621-1.31836,2.9789,2.9789,0,0,1,1.2915-.81738,2.81489,2.81489,0,0,1,1.38672-.05078,4.445,4.445,0,0,1,1.40137.583,7.71555,7.71555,0,0,1,1.33594,1.05176q.20142.19775.396.42969c.13037.15527.248.30859.35449.459q.15894.22559.2749.39551.11572.16846.15967.24023l.36523-.374a4.22487,4.22487,0,0,0,.56738-.72461,2.09487,2.09487,0,0,0,.30273-.82812,1.83485,1.83485,0,0,0-.11768-.90234,2.80955,2.80955,0,0,0-.69482-.97461,8.8888,8.8888,0,0,0-1.25-1.03906,5.77447,5.77447,0,0,0-.93115-.53027l.92334-1.26172a5.73565,5.73565,0,0,1,1.08154.62109A10.45021,10.45021,0,0,1,80.32324,532.75816Zm-6.43311,6.8125q.47461.46436.86328.80176a5.15189,5.15189,0,0,0,.689.51855l2.17822-2.22852a2.40462,2.40462,0,0,0-.34863-.5791,7.203,7.203,0,0,0-.73535-.81738,7.057,7.057,0,0,0-.68262-.583,2.8021,2.8021,0,0,0-.79492-.42578,1.87064,1.87064,0,0,0-.8335-.083,1.37079,1.37079,0,0,0-.79834.44238,1.49991,1.49991,0,0,0-.51562,1.44922A3.3474,3.3474,0,0,0,73.89014,539.57066Z" transform="translate(28.0111 11.09614)"/></g></svg>